<?xml version="1.0" encoding="UTF-8"?>
<svg width="595px" height="227px" viewBox="0 0 595 227" version="1.1" xmlns="http://www.w3.org/2000/svg" xmlns:xlink="http://www.w3.org/1999/xlink">
    <!-- Generator: Sketch 53 (72520) - https://sketchapp.com -->
    <title>Artboard</title>
    <desc>Created with Sketch.</desc>
    <defs>
        <polygon id="path-1" points="1.77316398 2.497 37.3771962 2.497 37.3771962 47.6757549 1.77316398 47.6757549"></polygon>
        <linearGradient x1="38.1899527%" y1="31.7577918%" x2="50%" y2="72.5223003%" id="linearGradient-3">
            <stop stop-color="#21ABA0" offset="0%"></stop>
            <stop stop-color="#5252DB" offset="100%"></stop>
        </linearGradient>
    </defs>
    <g id="Artboard" stroke="none" stroke-width="1" fill="none" fill-rule="evenodd">
        <g id="Group-41">
            <g id="Group-3" transform="translate(9.596774, 0.701462)">
                <mask id="mask-2" fill="white">
                    <use xlink:href="#path-1"></use>
                </mask>
                <g id="Clip-2"></g>
                <path d="M25.9474382,6.32338873 C25.9474382,8.34400845 24.2168199,10.0832761 22.2078952,10.0832761 C20.131793,10.0832761 18.3275995,8.34400845 18.3275995,6.32338873 C18.3275995,4.23562817 20.131793,2.49636056 22.2078952,2.49636056 C24.2168199,2.49636056 25.9474382,4.23562817 25.9474382,6.32338873 L25.9474382,6.32338873 Z M16.3186747,6.32338873 C16.3186747,8.34400845 14.6584328,10.0832761 12.5791317,10.0832761 C10.570207,10.0832761 8.83958871,8.34400845 8.83958871,6.32338873 C8.83958871,4.23562817 10.570207,2.49636056 12.5791317,2.49636056 C14.6584328,2.49636056 16.3186747,4.23562817 16.3186747,6.32338873 L16.3186747,6.32338873 Z M16.6673575,22.8943887 C10.9860672,22.8943887 8.6316586,25.675938 8.6316586,31.245431 L8.6316586,41.2717972 L23.1771694,41.2717972 L23.1771694,22.8943887 L16.6673575,22.8943887 Z M34.6069274,41.2717972 C36.5454758,41.2717972 37.3771962,41.8984451 37.3771962,44.4753746 C37.3771962,46.978769 36.6158522,47.6757549 34.6069274,47.6757549 L1.77316398,47.6757549 L1.77316398,30.6219803 C1.77316398,21.7082338 5.86138978,16.4872338 15.2150457,16.4872338 L30.1060403,16.4872338 L30.1060403,41.2717972 L34.6069274,41.2717972 Z" id="Fill-1" fill="#FFFFFF" mask="url(#mask-2)"></path>
            </g>
            <path d="M60.2015242,41.9723 L93.4479489,41.9723 L93.4479489,31.3224831 C93.4479489,26.1718211 91.0935403,23.5948915 85.4826263,23.5948915 L60.2015242,23.5948915 L60.2015242,41.9723 Z M87.0756909,17.1909338 C96.2885941,17.1909338 100.303245,22.1305817 100.303245,30.9036521 L100.303245,41.9723 L104.877707,41.9723 C106.816255,41.9723 107.647976,42.5989479 107.647976,45.1758775 C107.647976,47.682469 106.886632,48.3762577 104.877707,48.3762577 L44.2005027,48.3762577 C42.191578,48.3762577 41.4302339,47.682469 41.4302339,45.1758775 C41.4302339,42.5989479 42.2619543,41.9723 44.2005027,41.9723 L53.3430296,41.9723 L53.3430296,17.1909338 L87.0756909,17.1909338 Z" id="Fill-4" fill="#FFFFFF"></path>
            <path d="M104.874188,48.3775366 C102.798086,48.3775366 102.103919,47.7508887 102.103919,45.1771563 C102.103919,42.6002268 102.93564,41.9735789 104.874188,41.9735789 L120.113866,41.9735789 C122.049215,41.9735789 122.880935,42.6002268 122.880935,45.1771563 C122.880935,47.6805507 122.189968,48.3775366 120.113866,48.3775366 L104.874188,48.3775366 Z" id="Fill-6" fill="#FFFFFF"></path>
            <path d="M137.150699,7.09518873 C137.150699,9.11261127 135.484059,10.8550761 133.407957,10.8550761 C131.399032,10.8550761 129.668414,9.11261127 129.668414,7.09518873 C129.668414,5.00742817 131.399032,3.26496338 133.407957,3.26496338 C135.484059,3.26496338 137.150699,5.00742817 137.150699,7.09518873 L137.150699,7.09518873 Z M141.027796,41.9732592 C142.966344,41.9732592 143.798065,42.599907 143.798065,45.1768366 C143.798065,47.680231 143.103898,48.3772169 141.027796,48.3772169 L120.110027,48.3772169 C118.101102,48.3772169 117.339758,47.680231 117.339758,45.1768366 C117.339758,42.599907 118.16828,41.9732592 120.110027,41.9732592 L129.94672,41.9732592 L129.94672,17.1886958 L136.734839,17.1886958 L136.734839,41.9732592 L141.027796,41.9732592 Z" id="Fill-8" fill="#FFFFFF"></path>
            <path d="M141.027476,48.3775366 C138.951374,48.3775366 138.257207,47.7508887 138.257207,45.1771563 C138.257207,42.6002268 139.088927,41.9735789 141.027476,41.9735789 L156.267153,41.9735789 C158.202503,41.9735789 159.034223,42.6002268 159.034223,45.1771563 C159.034223,47.6805507 158.343255,48.3775366 156.267153,48.3775366 L141.027476,48.3775366 Z" id="Fill-10" fill="#FFFFFF"></path>
            <path d="M156.262995,48.3775366 C154.186892,48.3775366 153.492726,47.7508887 153.492726,45.1771563 C153.492726,42.6002268 154.324446,41.9735789 156.262995,41.9735789 L171.502672,41.9735789 C173.44122,41.9735789 174.272941,42.6002268 174.272941,45.1771563 C174.272941,47.6805507 173.578774,48.3775366 171.502672,48.3775366 L156.262995,48.3775366 Z" id="Fill-12" fill="#FFFFFF"></path>
            <path d="M171.498513,48.3775366 C169.422411,48.3775366 168.728245,47.7508887 168.728245,45.1771563 C168.728245,42.6002268 169.559965,41.9735789 171.498513,41.9735789 L186.738191,41.9735789 C188.676739,41.9735789 189.50846,42.6002268 189.50846,45.1771563 C189.50846,47.6805507 188.814293,48.3775366 186.738191,48.3775366 L171.498513,48.3775366 Z" id="Fill-14" fill="#FFFFFF"></path>
            <path d="M186.737231,48.3775366 C184.661129,48.3775366 183.966962,47.7508887 183.966962,45.1771563 C183.966962,42.6002268 184.798683,41.9735789 186.737231,41.9735789 L201.976909,41.9735789 C203.912258,41.9735789 204.743978,42.6002268 204.743978,45.1771563 C204.743978,47.6805507 204.053011,48.3775366 201.976909,48.3775366 L186.737231,48.3775366 Z" id="Fill-16" fill="#FFFFFF"></path>
            <path d="M201.97275,48.3775366 C199.896648,48.3775366 199.202481,47.7508887 199.202481,45.1771563 C199.202481,42.6002268 200.034202,41.9735789 201.97275,41.9735789 L217.212427,41.9735789 C219.150976,41.9735789 219.982696,42.6002268 219.982696,45.1771563 C219.982696,47.6805507 219.28853,48.3775366 217.212427,48.3775366 L201.97275,48.3775366 Z" id="Fill-18" fill="#FFFFFF"></path>
            <path d="M232.724973,41.9723 L247.270484,41.9723 L247.270484,31.949131 C247.270484,26.379638 244.916075,23.5948915 239.234785,23.5948915 L232.724973,23.5948915 L232.724973,41.9723 Z M240.760672,17.1909338 C250.111129,17.1909338 254.196156,22.4119338 254.196156,31.3224831 L254.196156,48.3762577 L217.206989,48.3762577 C215.198065,48.3762577 214.43672,47.682469 214.43672,45.1758775 C214.43672,42.5989479 215.268441,41.9723 217.206989,41.9723 L225.866478,41.9723 L225.866478,17.1909338 L240.760672,17.1909338 Z" id="Fill-20" fill="#FFFFFF"></path>
            <path d="M58.8115914,90.6123254 C58.8115914,92.6297479 57.1481505,94.3722127 55.0720484,94.3722127 C53.0631237,94.3722127 51.3293065,92.6297479 51.3293065,90.6123254 C51.3293065,88.5245648 53.0631237,86.7821 55.0720484,86.7821 C57.1481505,86.7821 58.8115914,88.5245648 58.8115914,90.6123254 L58.8115914,90.6123254 Z M54.240328,107.112987 C48.5622366,107.112987 46.207828,109.894537 46.207828,115.46403 L46.207828,125.490396 L60.7501398,125.490396 L60.7501398,107.112987 L54.240328,107.112987 Z M15.3126129,131.894354 C6.17008602,131.894354 2.08505914,126.951508 2.08505914,118.181635 L2.08505914,107.528621 L8.94035484,107.528621 L8.94035484,117.762804 C8.94035484,122.913466 11.2947634,125.490396 16.8385,125.490396 L39.4197097,125.490396 L39.4197097,114.840579 C39.4197097,105.93003 43.5047366,100.705832 52.8551935,100.705832 L67.7461882,100.705832 L67.7461882,131.894354 L15.3126129,131.894354 Z" id="Fill-22" fill="#FFFFFF"></path>
            <polygon id="Fill-24" fill="#FFFFFF" points="77.1612634 131.894673 84.0197581 131.894673 84.0197581 85.4619831 77.1612634 85.4619831"></polygon>
            <path d="M106.601608,125.489117 C108.536957,125.489117 109.368677,126.115765 109.368677,128.692694 C109.368677,131.199286 108.610532,131.893075 106.601608,131.893075 L102.167898,131.893075 C102.097522,141.292793 97.8045645,147.002962 88.2461774,147.002962 L85.6134624,147.002962 L85.6134624,140.458328 L87.6927634,140.458328 C93.1629247,140.458328 95.3126022,136.768779 95.3126022,131.755596 L95.3126022,100.707751 L102.167898,100.707751 L102.167898,125.489117 L106.601608,125.489117 Z" id="Fill-26" fill="#FFFFFF"></path>
            <path d="M145.663677,89.9159789 C145.663677,91.9334014 144.000237,93.6758662 141.924134,93.6758662 C139.848032,93.6758662 138.184591,91.9334014 138.184591,89.9159789 C138.184591,87.8282183 139.848032,86.1560915 141.924134,86.1560915 C144.000237,86.1560915 145.663677,87.8282183 145.663677,89.9159789 L145.663677,89.9159789 Z M141.025237,81.6320775 C141.025237,83.6526972 139.291419,85.3887676 137.282495,85.3887676 C135.203194,85.3887676 133.405398,83.6526972 133.405398,81.6320775 C133.405398,79.5443169 135.203194,77.8018521 137.282495,77.8018521 C139.291419,77.8018521 141.025237,79.5443169 141.025237,81.6320775 L141.025237,81.6320775 Z M136.10529,89.9159789 C136.10529,91.9334014 134.441849,93.6758662 132.365747,93.6758662 C130.356823,93.6758662 128.626204,91.9334014 128.626204,89.9159789 C128.626204,87.8282183 130.356823,86.1560915 132.365747,86.1560915 C134.441849,86.1560915 136.10529,87.8282183 136.10529,89.9159789 L136.10529,89.9159789 Z M161.527145,125.487838 C163.462495,125.487838 164.294215,126.117683 164.294215,128.691415 C164.294215,131.198007 163.53607,131.894993 161.527145,131.894993 L106.531231,131.894993 C104.522306,131.894993 103.757763,131.198007 103.757763,128.691415 C103.757763,126.117683 104.589484,125.487838 106.531231,125.487838 L117.266823,125.487838 L117.266823,102.934908 L124.125317,102.934908 L124.125317,125.487838 L133.750882,125.487838 L133.750882,102.934908 L140.609376,102.934908 L140.609376,125.487838 L150.23814,125.487838 L150.23814,100.706472 L157.093435,100.706472 L157.093435,125.487838 L161.527145,125.487838 Z" id="Fill-27" fill="#FFFFFF"></path>
            <path d="M185.834495,90.5419873 C185.834495,92.562607 184.103876,94.3018746 182.094952,94.3018746 C180.018849,94.3018746 178.214656,92.562607 178.214656,90.5419873 C178.214656,88.4542268 180.018849,86.7149592 182.094952,86.7149592 C184.103876,86.7149592 185.834495,88.4542268 185.834495,90.5419873 L185.834495,90.5419873 Z M176.205731,90.5419873 C176.205731,92.562607 174.545489,94.3018746 172.466188,94.3018746 C170.457263,94.3018746 168.726645,92.562607 168.726645,90.5419873 C168.726645,88.4542268 170.457263,86.7149592 172.466188,86.7149592 C174.545489,86.7149592 176.205731,88.4542268 176.205731,90.5419873 L176.205731,90.5419873 Z M185.901672,125.490396 C187.843419,125.490396 188.67514,126.117044 188.67514,128.693973 C188.67514,131.197368 187.980973,131.894354 185.901672,131.894354 L161.522667,131.894354 C159.513742,131.894354 158.752398,131.197368 158.752398,128.693973 C158.752398,126.117044 159.584118,125.490396 161.522667,125.490396 L173.435462,125.490396 L173.435462,100.705832 L180.223581,100.705832 L180.223581,125.490396 L185.901672,125.490396 Z" id="Fill-28" fill="#FFFFFF"></path>
            <path d="M185.903272,131.894673 C183.894347,131.894673 183.133003,131.197687 183.133003,128.694293 C183.133003,126.117363 183.964723,125.490715 185.903272,125.490715 L196.638863,125.490715 L196.638863,102.934589 L203.497358,102.934589 L203.497358,125.490715 L213.126121,125.490715 L213.126121,102.934589 L219.981417,102.934589 L219.981417,125.490715 L229.61018,125.490715 L229.61018,100.706152 L236.468675,100.706152 L236.468675,131.894673 L185.903272,131.894673 Z" id="Fill-29" fill="#FFFFFF"></path>
            <polygon id="Fill-30" fill="#FFFFFF" points="245.882151 131.894673 252.740645 131.894673 252.740645 85.4619831 245.882151 85.4619831"></polygon>
            <polygon id="Fill-31" fill="url(#linearGradient-3)" points="465.91539 209.447785 438.06875 209.447785 438.06875 42.9320944 422.816277 42.9320944 422.816277 179.3527 394.755309 179.3527 394.755309 24.6665873 381.594933 24.6665873 381.594933 125.374658 352.046465 125.374658 352.046465 58.7517563 336.883562 58.7517563 336.883562 78.4559958 309.417594 78.4559958 309.417594 58.0036155 315.956196 58.0036155 315.956196 71.9209535 330.34496 71.9209535 330.34496 52.2167141 358.585067 52.2167141 358.585067 118.839615 375.056331 118.839615 375.056331 18.1315451 401.293911 18.1315451 401.293911 172.817658 416.277675 172.817658 416.277675 36.3970521 444.607352 36.3970521 444.607352 202.912742 459.376788 202.912742 459.376788 56.9069817 487.341788 56.9069817 487.341788 202.589827 502.232782 202.589827 502.232782 78.7917 530.197782 78.7917 530.197782 185.580813 545.085578 185.580813 545.085578 131.717869 573.047379 131.717869 573.047379 175.007728 587.938374 175.007728 587.938374 154.379503 594.473777 154.379503 594.473777 181.54277 566.508777 181.54277 566.508777 138.252911 551.62418 138.252911 551.62418 192.115855 523.65918 192.115855 523.65918 85.3267423 508.768185 85.3267423 508.768185 209.124869 480.803185 209.124869 480.803185 63.4420239 465.91539 63.4420239"></polygon>
            <path d="M21.4801398,178.428714 C21.4801398,180.222334 19.941457,181.76977 18.156457,181.76977 C16.3106774,181.76977 14.7112151,180.222334 14.7112151,178.428714 C14.7112151,176.574348 16.3106774,175.026911 18.156457,175.026911 C19.941457,175.026911 21.4801398,176.574348 21.4801398,178.428714 L21.4801398,178.428714 Z M12.9230161,178.428714 C12.9230161,180.222334 11.4451129,181.76977 9.59933333,181.76977 C7.81753226,181.76977 6.27565054,180.222334 6.27565054,178.428714 C6.27565054,176.574348 7.81753226,175.026911 9.59933333,175.026911 C11.4451129,175.026911 12.9230161,176.574348 12.9230161,178.428714 L12.9230161,178.428714 Z M13.2333118,193.151742 C8.1854086,193.151742 6.0901129,195.626362 6.0901129,200.575601 L6.0901129,209.482954 L19.0169677,209.482954 L19.0169677,193.151742 L13.2333118,193.151742 Z M29.1735538,209.482954 C30.8977742,209.482954 31.6367258,210.039263 31.6367258,212.328446 C31.6367258,214.553686 30.9585538,215.173939 29.1735538,215.173939 L-0.000639784946,215.173939 L-0.000639784946,200.019292 C-0.000639784946,192.099869 3.63013978,187.460756 11.9409462,187.460756 L25.1716989,187.460756 L25.1716989,209.482954 L29.1735538,209.482954 Z" id="Fill-32" fill="#FFFFFF"></path>
            <path d="M48.6930726,222.472469 C48.6930726,224.205342 47.1543898,225.752779 45.3693898,225.752779 C43.5236102,225.752779 41.9241478,224.205342 41.9241478,222.472469 C41.9241478,220.554159 43.5236102,219.00992 45.3693898,219.00992 C47.1543898,219.00992 48.6930726,220.554159 48.6930726,222.472469 L48.6930726,222.472469 Z M40.1359489,222.472469 C40.1359489,224.205342 38.6580457,225.752779 36.8122661,225.752779 C35.0304651,225.752779 33.4885833,224.205342 33.4885833,222.472469 C33.4885833,220.554159 35.0304651,219.00992 36.8122661,219.00992 C38.6580457,219.00992 40.1359489,220.554159 40.1359489,222.472469 L40.1359489,222.472469 Z M29.1796317,215.1733 C27.3978306,215.1733 26.7196586,214.553046 26.7196586,212.327807 C26.7196586,210.038624 27.4554113,209.482314 29.1796317,209.482314 L40.1999274,209.482314 L40.1999274,187.460117 L46.2299005,187.460117 L46.2299005,215.1733 L29.1796317,215.1733 Z" id="Fill-33" fill="#FFFFFF"></path>
            <path d="M67.6553387,187.460117 C75.8413871,187.460117 79.4113871,191.853046 79.4113871,199.647779 L79.4113871,215.1733 L52.8187258,215.1733 L52.8187258,209.482314 L73.3206344,209.482314 L73.3206344,200.018652 C73.3206344,195.440286 71.2253387,193.151103 66.241414,193.151103 L57.316414,193.151103 L57.316414,187.460117 L67.6553387,187.460117 Z" id="Fill-34" fill="#FFFFFF"></path>
            <path d="M92.653336,205.028318 C92.653336,208.244685 94.0096801,209.481994 96.9654866,209.481994 L97.5189005,209.481994 C99.243121,209.481994 99.9788737,210.038304 99.9788737,212.327487 C99.9788737,214.555924 99.3646801,215.17298 97.5189005,215.17298 L97.2693844,215.17298 C89.0865349,215.17298 86.5625833,211.895868 86.5625833,204.347318 L86.5625833,173.913332 L92.653336,173.913332 L92.653336,205.028318 Z" id="Fill-35" fill="#FFFFFF"></path>
            <path d="M111.737481,209.481994 L141.28275,209.481994 L141.28275,200.018332 C141.28275,195.439966 139.190653,193.150783 134.20353,193.150783 L111.737481,193.150783 L111.737481,209.481994 Z M135.620653,187.459797 C143.806702,187.459797 147.379901,191.852727 147.379901,199.647459 L147.379901,209.481994 L151.439336,209.481994 C153.163556,209.481994 153.902508,210.038304 153.902508,212.327487 C153.902508,214.555924 153.224336,215.17298 151.439336,215.17298 L97.5214597,215.17298 C95.7364597,215.17298 95.0582876,214.555924 95.0582876,212.327487 C95.0582876,210.038304 95.7972392,209.481994 97.5214597,209.481994 L105.646728,209.481994 L105.646728,187.459797 L135.620653,187.459797 Z" id="Fill-36" fill="#FFFFFF"></path>
            <path d="M173.057349,178.428714 C173.057349,180.222334 171.518667,181.76977 169.733667,181.76977 C167.887887,181.76977 166.285226,180.222334 166.285226,178.428714 C166.285226,176.574348 167.887887,175.026911 169.733667,175.026911 C171.518667,175.026911 173.057349,176.574348 173.057349,178.428714 L173.057349,178.428714 Z M164.500226,178.428714 C164.500226,180.222334 163.022323,181.76977 161.176543,181.76977 C159.394742,181.76977 157.85286,180.222334 157.85286,178.428714 C157.85286,176.574348 159.394742,175.026911 161.176543,175.026911 C163.022323,175.026911 164.500226,176.574348 164.500226,178.428714 L164.500226,178.428714 Z M173.118129,209.482954 C174.842349,209.482954 175.581301,210.039263 175.581301,212.328446 C175.581301,214.553686 174.967108,215.173939 173.118129,215.173939 L151.451812,215.173939 C149.666812,215.173939 148.991839,214.553686 148.991839,212.328446 C148.991839,210.039263 149.727591,209.482954 151.451812,209.482954 L162.040253,209.482954 L162.040253,187.460756 L168.070226,187.460756 L168.070226,209.482954 L173.118129,209.482954 Z" id="Fill-37" fill="#FFFFFF"></path>
            <path d="M201.747866,178.428714 C201.747866,180.222334 200.209183,181.76977 198.424183,181.76977 C196.578403,181.76977 194.978941,180.222334 194.978941,178.428714 C194.978941,176.574348 196.578403,175.026911 198.424183,175.026911 C200.209183,175.026911 201.747866,176.574348 201.747866,178.428714 L201.747866,178.428714 Z M194.23679,193.151742 C189.192086,193.151742 187.099989,195.626362 187.099989,200.575601 L187.099989,209.482954 L200.023645,209.482954 L200.023645,193.151742 L194.23679,193.151742 Z M193.190742,178.428714 C193.190742,180.222334 191.712839,181.76977 189.867059,181.76977 C188.085258,181.76977 186.543376,180.222334 186.543376,178.428714 C186.543376,176.574348 188.085258,175.026911 189.867059,175.026911 C191.712839,175.026911 193.190742,176.574348 193.190742,178.428714 L193.190742,178.428714 Z M173.127086,215.173939 C171.342086,215.173939 170.663914,214.553686 170.663914,212.328446 C170.663914,210.039263 171.402866,209.482954 173.127086,209.482954 L181.006038,209.482954 L181.006038,200.019292 C181.006038,192.099869 184.633618,187.460756 192.944425,187.460756 L206.181575,187.460756 L206.181575,215.173939 L173.127086,215.173939 Z" id="Fill-38" fill="#FFFFFF"></path>
            <path d="M222.376452,204.841603 L228.470403,204.841603 L228.470403,178.922039 L222.376452,178.922039 L222.376452,204.841603 Z M244.78172,203.543546 C244.78172,210.532589 240.655108,215.171701 233.393548,215.171701 L212.341425,215.171701 L212.341425,209.480715 L232.961694,209.480715 C236.83879,209.480715 238.68457,207.440913 238.68457,203.543546 L238.68457,173.851307 L244.78172,173.851307 L244.78172,203.543546 Z" id="Fill-39" fill="#FFFFFF"></path>
            <polygon id="Fill-40" fill="#FFFFFF" points="253.162903 215.171701 259.253656 215.171701 259.253656 173.912054 253.162903 173.912054"></polygon>
        </g>
    </g>
</svg>