<?xml version="1.0" encoding="utf-8"?>
<!-- Generator: Adobe Illustrator 23.0.4, SVG Export Plug-In . SVG Version: 6.00 Build 0)  -->
<svg version="1.1" id="Layer_1" xmlns="http://www.w3.org/2000/svg" xmlns:xlink="http://www.w3.org/1999/xlink" x="0px" y="0px"
	 viewBox="0 0 406.23 147.18" style="enable-background:new 0 0 406.23 147.18;" xml:space="preserve">
<style type="text/css">
	.st0{fill:#FFFFFF;}
	.st1{fill:#05F3CE;}
</style>
<g>
	<path class="st0" d="M14.35,95.55c-7.76,0-11.15-4.14-11.15-11.5v-8.93h5.78v8.58c0,4.32,1.99,6.48,6.66,6.48h22.35V69.4h5.78
		v26.15H14.35z M22.99,64.73c0,1.69-1.4,3.15-3.15,3.15c-1.69,0-3.15-1.46-3.15-3.15c0-1.75,1.46-3.21,3.15-3.21
		C21.59,61.52,22.99,62.98,22.99,64.73z M31.1,64.73c0,1.69-1.46,3.15-3.15,3.15c-1.75,0-3.27-1.46-3.27-3.15
		c0-1.75,1.52-3.21,3.27-3.21C29.64,61.52,31.1,62.98,31.1,64.73z"/>
	<path class="st0" d="M51.7,95.55V56.62h5.78v38.93H51.7z"/>
	<path class="st0" d="M77.43,69.4c7.76,0,11.15,4.14,11.15,11.5v14.65H63.37v-5.37H82.8v-8.93c0-4.32-1.99-6.48-6.71-6.48h-8.46
		V69.4H77.43z"/>
	<path class="st0" d="M95.35,95.55V56.62h5.78v38.93H95.35z"/>
	<path class="st0" d="M120.15,90.18c1.64,0,2.34,0.53,2.34,2.69c0,2.1-0.64,2.68-2.34,2.68h-3.74c-0.06,7.88-3.68,12.67-11.73,12.67
		h-2.22v-5.49h1.75c4.61,0,6.42-3.09,6.42-7.3V69.4h5.78v20.78H120.15z"/>
	<path class="st0" d="M120.15,95.55c-1.69,0-2.33-0.58-2.33-2.68c0-2.16,0.7-2.69,2.33-2.69h10.45V69.4h5.72v26.15H120.15z
		 M130.54,102.44c0,1.64-1.4,3.09-3.15,3.09c-1.69,0-3.15-1.46-3.15-3.09c0-1.81,1.46-3.27,3.15-3.27
		C129.14,99.17,130.54,100.63,130.54,102.44z M138.65,102.44c0,1.64-1.46,3.09-3.15,3.09c-1.75,0-3.27-1.46-3.27-3.09
		c0-1.81,1.52-3.27,3.27-3.27C137.19,99.17,138.65,100.63,138.65,102.44z"/>
	<path class="st0" d="M148.33,104.66c-1.63,0-2.16,0.81-2.16,2.39v3.04h6.3v2.86h-11.97v-2.86h2.68v-3.15
		c0-3.62,1.52-5.13,5.19-5.13h3.27v2.86H148.33z M144.66,95.55V56.62h5.78v38.93H144.66z"/>
	<path class="st0" d="M196.37,90.18c1.63,0,2.33,0.53,2.33,2.69c0,2.1-0.64,2.68-2.33,2.68H168.7v-14.3
		c0-7.47,3.45-11.85,11.32-11.85h12.55v20.78H196.37z M181.25,74.77c-4.79,0-6.77,2.34-6.77,7v8.4h12.26V74.77H181.25z
		 M180.96,60.88c0,1.69-1.4,3.15-3.15,3.15c-1.7,0-3.15-1.46-3.15-3.15c0-1.75,1.46-3.21,3.15-3.21
		C179.56,57.67,180.96,59.13,180.96,60.88z M189.07,60.88c0,1.69-1.46,3.15-3.15,3.15c-1.75,0-3.27-1.46-3.27-3.15
		c0-1.75,1.52-3.21,3.27-3.21C187.61,57.67,189.07,59.13,189.07,60.88z"/>
	<path class="st0" d="M232.49,69.4c7.76,0,11.15,4.14,11.15,11.5v9.28h3.85c1.64,0,2.34,0.53,2.34,2.69c0,2.1-0.64,2.68-2.34,2.68
		h-51.13c-1.69,0-2.33-0.58-2.33-2.68c0-2.16,0.7-2.69,2.33-2.69h7.71V69.4H232.49z M209.84,90.18h28.02v-8.93
		c0-4.32-1.98-6.48-6.71-6.48h-21.31V90.18z"/>
	<path class="st0" d="M265.11,90.18c1.64,0,2.34,0.53,2.34,2.69c0,2.1-0.58,2.68-2.34,2.68h-17.63c-1.69,0-2.33-0.58-2.33-2.68
		c0-2.16,0.7-2.69,2.33-2.69h8.29V69.4h5.72v20.78H265.11z M261.84,60.94c0,1.69-1.4,3.15-3.15,3.15c-1.69,0-3.15-1.46-3.15-3.15
		c0-1.75,1.46-3.21,3.15-3.21C260.44,57.73,261.84,59.19,261.84,60.94z"/>
	<path class="st0" d="M284.95,69.4c7.88,0,11.32,4.38,11.32,11.85v14.3H265.1c-1.69,0-2.33-0.58-2.33-2.68
		c0-2.16,0.7-2.69,2.33-2.69h7.3V69.4H284.95z M278.18,90.18h12.26v-8.4c0-4.67-1.98-7-6.77-7h-5.49V90.18z"/>
</g>
<g>
	<path class="st0" d="M361.08,38.48l-0.13,65.84c-0.02,10.66-6.32,18.63-14.67,26.07c-0.01,0.01-0.03,0.03-0.04,0.04
		c-7.95,7.09-17.29,13.06-29.2,13.04c-1.77,0-3.5-0.13-5.21-0.34c6.38-0.82,12.24-3.11,17.13-6.49c2.6-1.8,4.92-3.9,6.88-6.25
		c0,0,0,0,0.01-0.01c4.57-5.44,7.29-12.19,7.3-19.5l0.09-43.34l-14.74-0.02L361.08,38.48L361.08,38.48z"/>
	<path class="st1" d="M403.11,2.15l-0.16,83.26c-0.02,13.48-7.99,23.55-18.55,32.97c-0.01,0.01-0.04,0.03-0.05,0.05
		c-10.05,8.96-21.86,16.52-36.93,16.5c-2.23,0-4.43-0.16-6.59-0.43c8.07-1.04,15.47-3.93,21.66-8.21c3.29-2.27,6.23-4.93,8.71-7.91
		c0,0,0,0,0.01-0.01c5.78-6.88,9.21-15.42,9.23-24.66l0.11-54.81l-18.64-0.03L403.11,2.15L403.11,2.15z"/>
</g>
</svg>
