<?xml version="1.0" encoding="UTF-8"?>
<svg width="210px" height="151px" viewBox="0 0 210 151" version="1.1" xmlns="http://www.w3.org/2000/svg" xmlns:xlink="http://www.w3.org/1999/xlink">
    <!-- Generator: Sketch 52.1 (67048) - http://www.bohemiancoding.com/sketch -->
    <title>Group 2</title>
    <desc>Created with Sketch.</desc>
    <defs>
        <path d="M107.645,68.1842081 C107.645,69.1080761 107.193338,69.5700031 106.290001,69.5700031 L104.195911,69.5700031 L104.195911,52.2321673 C104.195911,51.3082993 104.647573,50.8463723 105.55091,50.8463723 L107.645,50.8463723 L107.645,68.1842081 Z M94.9572769,69.5700031 C94.0950001,69.5700031 93.3713144,69.42116 92.786198,69.1234692 C92.2010816,68.8257784 91.7545521,68.5332246 91.4465961,68.245799 C91.1591705,68.5332246 90.7434361,68.8052483 90.1993805,69.0618783 C89.655325,69.3185083 88.9213742,69.4878815 87.9975062,69.5700031 L87.3815973,69.5700031 C86.9504589,69.5700031 86.421809,69.4827502 85.7956318,69.3082418 C85.1694547,69.1337334 84.5997446,68.8617097 84.0864846,68.4921625 C83.7374678,68.8001185 83.2909383,69.0567447 82.7468827,69.2620487 C82.2028272,69.4673527 81.5612618,69.5700031 80.8221674,69.5700031 L78.3277363,69.5700031 L78.3277363,66.244095 L80.1446676,66.244095 C80.6989884,66.244095 81.0890601,66.1106494 81.3148945,65.8437542 C81.5407289,65.576859 81.6536444,65.2381125 81.6536444,64.8275045 L81.6536444,61.4400055 C81.6536444,60.4956071 82.0950414,60.023415 82.9778486,60.023415 L85.1027343,60.023415 L85.1027343,65.7205724 C85.2259167,65.802694 85.4620128,65.910477 85.8110296,66.0439246 C86.1600464,66.1773722 86.6938287,66.244095 87.4123927,66.244095 C87.6176967,66.244095 87.8332627,66.2286974 88.0590971,66.1979018 C88.2849315,66.1671062 88.4902324,66.1106485 88.675006,66.0285269 C88.8597796,65.9464053 89.0137553,65.8334898 89.1369377,65.689777 C89.2601201,65.5460642 89.3217104,65.3510283 89.3217104,65.1046635 L89.3217104,61.4400055 C89.3217104,60.4956071 89.7733724,60.023415 90.67671,60.023415 L92.7708002,60.023415 L92.7708002,65.5050043 C93.0992866,65.8540211 93.4585632,66.0644546 93.8486408,66.136311 C94.2387184,66.2081674 94.6082601,66.244095 94.9572769,66.244095 C95.8400841,66.244095 96.4303242,66.0490591 96.728015,65.6589815 C97.0257058,65.268904 97.1745489,64.6940614 97.1745489,63.9344366 L97.1745489,59.5306879 C97.1745489,58.5862895 97.626211,58.1140974 98.5295485,58.1140974 L100.623639,58.1140974 L100.623639,63.8728457 C100.623639,64.7145921 100.541518,65.4844705 100.377275,66.1825041 C100.213032,66.8805377 99.9204783,67.4810429 99.4996051,67.9840377 C99.0787319,68.4870325 98.4987568,68.8771042 97.7596624,69.1542646 C97.020568,69.431425 96.0864489,69.5700031 94.9572769,69.5700031 Z M72.4766017,59.5306879 C72.4766017,58.5862895 72.9282637,58.1140974 73.8316013,58.1140974 L75.9256916,58.1140974 L75.9256916,65.7205724 C75.9256916,65.9464068 76.1155949,66.0901175 76.4954073,66.1517087 C76.8752197,66.2132999 77.4654598,66.244095 78.2661454,66.244095 L78.4158417,66.244095 L78.4158417,69.5700031 L78.2661454,69.5700031 C77.835007,69.5700031 77.3012247,69.4724852 76.6647823,69.2774464 C76.0283399,69.0824076 75.4534973,68.7898538 74.9402373,68.3997762 C74.5912205,68.7077322 74.144691,68.9797559 73.6006354,69.2158555 C73.0565799,69.4519551 72.4252795,69.5700031 71.7067155,69.5700031 L69.0275118,69.5700031 L69.0275118,66.244095 L70.9676249,66.244095 C71.5014152,66.244095 71.8863545,66.1106494 72.1224541,65.8437542 C72.3585537,65.576859 72.4766017,65.2381125 72.4766017,64.8275045 L72.4766017,59.5306879 Z M69.7666025,53.8335305 C69.7666025,53.2792097 69.9616384,52.8070176 70.3517159,52.41694 C70.7417935,52.0268624 71.2242507,51.8318265 71.7991019,51.8318265 C72.3534227,51.8318265 72.8256148,52.0268624 73.2156924,52.41694 C73.60577,52.8070176 73.8008058,53.2792097 73.8008058,53.8335305 C73.8008058,54.3878513 73.60577,54.8600434 73.2156924,55.250121 C72.8256148,55.6401986 72.3534227,55.8352344 71.7991019,55.8352344 C71.2242507,55.8352344 70.7417935,55.6401986 70.3517159,55.250121 C69.9616384,54.8600434 69.7666025,54.3878513 69.7666025,53.8335305 Z M74.4167147,53.8335305 C74.4167147,53.2792097 74.6168831,52.8070176 75.0172259,52.41694 C75.4175687,52.0268624 75.8948934,51.8318265 76.4492141,51.8318265 C77.0035349,51.8318265 77.475727,52.0268624 77.8658046,52.41694 C78.2558822,52.8070176 78.4509181,53.2792097 78.4509181,53.8335305 C78.4509181,54.3878513 78.2558822,54.8600434 77.8658046,55.250121 C77.475727,55.6401986 77.0035349,55.8352344 76.4492141,55.8352344 C75.8948934,55.8352344 75.4175687,55.6401986 75.0172259,55.250121 C74.6168831,54.8600434 74.4167147,54.3878513 74.4167147,53.8335305 Z M55.5391067,50.7847814 C55.5391067,50.2099302 55.7341426,49.727473 56.1242201,49.3373955 C56.5142977,48.9473179 56.9967549,48.752282 57.5716061,48.752282 C58.1259269,48.752282 58.598119,48.9473179 58.9881966,49.3373955 C59.3782742,49.727473 59.57331,50.2099302 59.57331,50.7847814 C59.57331,51.3391022 59.3782742,51.8112943 58.9881966,52.2013719 C58.598119,52.5914495 58.1259269,52.7864853 57.5716061,52.7864853 C56.9967549,52.7864853 56.5142977,52.5914495 56.1242201,52.2013719 C55.7341426,51.8112943 55.5391067,51.3391022 55.5391067,50.7847814 Z M53.2602437,54.8497802 C53.2602437,54.2954594 53.4552796,53.8232673 53.8453572,53.4331897 C54.2354348,53.0431121 54.7178919,52.8480762 55.2927431,52.8480762 C55.8470639,52.8480762 56.319256,53.0431121 56.7093336,53.4331897 C57.0994112,53.8232673 57.2944471,54.2954594 57.2944471,54.8497802 C57.2944471,55.404101 57.0994112,55.8762931 56.7093336,56.2663707 C56.319256,56.6564483 55.8470639,56.8514841 55.2927431,56.8514841 C54.7178919,56.8514841 54.2354348,56.6564483 53.8453572,56.2663707 C53.4552796,55.8762931 53.2602437,55.404101 53.2602437,54.8497802 Z M57.910356,54.8497802 C57.910356,54.2954594 58.1105244,53.8232673 58.5108672,53.4331897 C58.91121,53.0431121 59.3885346,52.8480762 59.9428554,52.8480762 C60.4971762,52.8480762 60.9693683,53.0431121 61.3594459,53.4331897 C61.7495235,53.8232673 61.9445593,54.2954594 61.9445593,54.8497802 C61.9445593,55.404101 61.7495235,55.8762931 61.3594459,56.2663707 C60.9693683,56.6564483 60.4971762,56.8514841 59.9428554,56.8514841 C59.3885346,56.8514841 58.91121,56.6564483 58.5108672,56.2663707 C58.1105244,55.8762931 57.910356,55.404101 57.910356,54.8497802 Z M61.5442185,69.5700031 C60.5176986,69.5700031 59.6913624,69.4160274 59.0651852,69.1080714 C58.439008,68.8001154 57.9616834,68.5024291 57.633197,68.2150035 C57.3457714,68.4818987 56.9146395,68.7539224 56.3397883,69.0310828 C55.7649371,69.3082432 55.0361188,69.4878815 54.1533116,69.5700031 L53.5681982,69.5700031 C53.1165294,69.5700031 52.5776145,69.4827502 51.9514373,69.3082418 C51.3252601,69.1337334 50.7555501,68.8617097 50.2422901,68.4921625 C49.8932733,68.8206489 49.4518763,69.0824076 48.9180859,69.2774464 C48.3842955,69.4724852 47.7581277,69.5700031 47.0395637,69.5700031 L44.5759281,69.5700031 L44.5759281,66.244095 L46.4236548,66.244095 C46.9574452,66.244095 47.3218543,66.1003844 47.5168931,65.8129588 C47.7119319,65.5255332 47.8094499,65.1765216 47.8094499,64.7659136 L47.8094499,61.4400055 C47.8094499,60.4956071 48.2611119,60.023415 49.1644495,60.023415 L51.2585398,60.023415 L51.2585398,65.7205724 C51.3611918,65.802694 51.5818902,65.910477 51.9206418,66.0439246 C52.2593934,66.1773722 52.7777783,66.244095 53.4758118,66.244095 C53.6811158,66.244095 53.9018143,66.2286974 54.1379139,66.1979018 C54.3740135,66.1671062 54.5895795,66.115781 54.7846183,66.0439246 C54.9796571,65.9720682 55.1438978,65.8642852 55.2773454,65.7205724 C55.410793,65.5768596 55.4775158,65.3818238 55.4775158,65.135459 L55.4775158,61.4400055 C55.4775158,60.4956071 55.9189128,60.023415 56.8017199,60.023415 L58.9266057,60.023415 L58.9266057,65.5050043 C59.2961529,65.8540211 59.7324173,66.0644546 60.2354121,66.136311 C60.7384069,66.2081674 61.1746714,66.244095 61.5442185,66.244095 L61.6674003,66.244095 C62.2011907,66.244095 62.5809974,66.1157819 62.8068318,65.8591519 C63.0326662,65.6025219 63.1455817,65.2586429 63.1455817,64.8275045 L63.1455817,59.5306879 C63.1455817,58.5862895 63.5972437,58.1140974 64.5005813,58.1140974 L66.5946716,58.1140974 L66.5946716,65.7205724 C66.5946716,65.9258764 66.7999725,66.0644546 67.2105805,66.136311 C67.6211885,66.2081674 68.185766,66.244095 68.90433,66.244095 L69.0275118,66.244095 L69.0275118,69.5700031 L68.90433,69.5700031 C68.4731916,69.5700031 67.9394092,69.4570876 67.3029668,69.2312532 C66.6665245,69.0054188 66.0916819,68.7077325 65.5784219,68.3381853 C65.2294051,68.6461413 64.7777431,68.9284301 64.2234223,69.1850601 C63.6691015,69.44169 63.0429337,69.5700031 62.3449001,69.5700031 L61.5442185,69.5700031 Z M38.6016117,59.5306879 C38.6016117,58.5862895 39.0532737,58.1140974 39.9566113,58.1140974 L42.0507016,58.1140974 L42.0507016,65.8745497 C42.0507016,66.0593233 42.2765326,66.1671062 42.7282014,66.1979018 C43.1798702,66.2286974 43.7239176,66.244095 44.36036,66.244095 L44.5759281,66.244095 L44.5759281,69.5700031 L44.36036,69.5700031 C44.052404,69.5700031 43.6674648,69.4930153 43.2055308,69.3390373 C42.7435968,69.1850593 42.3586576,69.005421 42.0507016,68.800117 L42.0507016,72.0952296 C42.0507016,73.6350096 41.691425,74.7641647 40.972861,75.4827286 C40.254297,76.2012926 39.2791176,76.5605692 38.0472937,76.5605692 C37.6982769,76.5605692 37.287675,76.5246416 36.8154758,76.4527852 C36.3432767,76.3809288 35.7684341,76.2115555 35.0909309,75.9446603 C34.5160797,75.6572347 34.3313089,75.1439824 34.5366129,74.4048881 L34.9985446,72.5879568 C35.5528654,72.8959128 36.0250575,73.1063462 36.4151351,73.2192634 C36.8052126,73.3321806 37.1439592,73.3886384 37.4313848,73.3886384 C37.8625231,73.3886384 38.165342,73.2705903 38.3398504,73.0344907 C38.5143588,72.7983911 38.6016117,72.423717 38.6016117,71.910457 L38.6016117,59.5306879 Z M33.4587723,68.1842081 C33.4587723,69.1080761 33.0071103,69.5700031 32.1037727,69.5700031 L30.0096824,69.5700031 L30.0096824,52.2321673 C30.0096824,51.3082993 30.4613444,50.8463723 31.364682,50.8463723 L33.4587723,50.8463723 L33.4587723,68.1842081 Z M22.5571846,65.0430726 C21.9207422,65.2894374 21.2843094,65.4023529 20.647867,65.3818225 C16.5828479,65.3818225 14.5503688,63.5751745 14.5503688,59.9618241 C14.5503688,59.0379562 14.6581518,58.21162 14.873721,57.4827908 C15.0892902,56.7539616 15.4434342,56.1380588 15.9361638,55.6350641 C16.4288934,55.1320693 17.0653263,54.7522626 17.8454814,54.4956326 C18.6256366,54.2390026 19.5905509,54.1106895 20.7402533,54.1106895 C21.3151045,54.1106895 21.9156097,54.1671473 22.5417869,54.2800645 C23.1679641,54.3929816 23.7582042,54.5264272 24.312525,54.6804052 C24.8668458,54.8343832 25.4314233,55.0140215 26.0062745,55.2193255 L26.0062745,64.0884138 C26.0062745,66.0182714 25.4878897,67.4143176 24.4511045,68.2765944 C23.4143193,69.1388712 21.88996,69.5700031 19.8779808,69.5700031 L7.77537078,69.5700031 C6.5640772,69.5700031 5.51704252,69.4057624 4.63423534,69.077276 C3.75142816,68.7487896 3.0226099,68.3073926 2.44775871,67.7530718 C1.87290752,67.198751 1.45204064,66.5520532 1.18514545,65.8129588 C0.918250253,65.0738644 0.784804657,64.2834559 0.784804657,63.4417095 C0.784804657,62.7231455 0.830997364,62.0867126 0.923384162,61.5323919 C1.01577096,60.9780711 1.1132889,60.526409 1.21594089,60.1773923 C1.31859289,59.7873147 1.49309867,59.5306885 1.73946347,59.4075061 C1.98582826,59.2843237 2.30404468,59.2740587 2.69412228,59.3767107 L4.69582623,60.023415 C4.55211343,60.6187966 4.43406541,61.1885067 4.34167861,61.7325623 C4.24929181,62.2766178 4.2030991,62.7847376 4.2030991,63.2569368 C4.2030991,63.8728488 4.30061704,64.375836 4.49565584,64.7659136 C4.69069463,65.1559912 4.95758582,65.4588101 5.29633742,65.6743793 C5.63508901,65.8899485 6.01489571,66.0387916 6.4357689,66.1209132 C6.85664209,66.2030348 7.30317159,66.244095 7.77537078,66.244095 L20.2475262,66.244095 C20.9660902,66.244095 21.5306677,66.1568421 21.9412757,65.9823337 C22.3518837,65.8078253 22.5571846,65.4947414 22.5571846,65.0430726 Z M20.5554806,62.2406871 C20.9660886,62.2406871 21.2843051,62.220157 21.5101395,62.1790962 C21.7359738,62.1380354 22.0849854,62.035385 22.5571846,61.8711418 L22.5571846,57.7753475 C22.2081678,57.6726955 21.8694213,57.5905751 21.5409349,57.5289839 C21.2124485,57.4673927 20.8942321,57.4365976 20.5862761,57.4365976 C19.6213473,57.4365976 18.9438543,57.636766 18.5537767,58.0371088 C18.1636991,58.4374516 17.9686632,59.079017 17.9686632,59.9618241 C17.9686632,60.3724321 18.035386,60.7214437 18.1688336,61.0088693 C18.3022812,61.2962949 18.487052,61.5323909 18.7231516,61.7171645 C18.9592512,61.9019381 19.2312749,62.0353837 19.5392309,62.1175053 C19.8471869,62.1996269 20.1859334,62.2406871 20.5554806,62.2406871 Z M19.1080947,49.3989863 C19.1080947,48.8446656 19.3031306,48.3724734 19.6932082,47.9823959 C20.0832858,47.5923183 20.5554779,47.3972824 21.1097987,47.3972824 C21.6641195,47.3972824 22.1414441,47.5923183 22.5417869,47.9823959 C22.9421297,48.3724734 23.1422981,48.8446656 23.1422981,49.3989863 C23.1422981,49.9738375 22.9421297,50.4562947 22.5417869,50.8463723 C22.1414441,51.2364499 21.6641195,51.4314857 21.1097987,51.4314857 C20.5554779,51.4314857 20.0832858,51.2364499 19.6932082,50.8463723 C19.3031306,50.4562947 19.1080947,49.9738375 19.1080947,49.3989863 Z" id="path-1"></path>
        <filter x="-31.3%" y="-90.9%" width="162.7%" height="329.7%" filterUnits="objectBoundingBox" id="filter-2">
            <feOffset dx="0" dy="7" in="SourceAlpha" result="shadowOffsetOuter1"></feOffset>
            <feGaussianBlur stdDeviation="10" in="shadowOffsetOuter1" result="shadowBlurOuter1"></feGaussianBlur>
            <feColorMatrix values="0 0 0 0 0   0 0 0 0 0   0 0 0 0 0  0 0 0 0.298092165 0" type="matrix" in="shadowBlurOuter1"></feColorMatrix>
        </filter>
        <path d="M99.8778899,112.999118 C99.8778899,112.82379 99.937191,112.676827 100.055795,112.558223 C100.174399,112.439619 100.321362,112.380318 100.49669,112.380318 C100.672018,112.380318 100.818981,112.439619 100.937585,112.558223 C101.056189,112.676827 101.11549,112.82379 101.11549,112.999118 C101.11549,113.174446 101.056189,113.321409 100.937585,113.440013 C100.818981,113.558617 100.672018,113.617918 100.49669,113.617918 C100.321362,113.617918 100.174399,113.558617 100.055795,113.440013 C99.937191,113.321409 99.8778899,113.174446 99.8778899,112.999118 Z M101.54865,112.999118 C101.54865,112.82379 101.607951,112.676827 101.726555,112.558223 C101.845159,112.439619 101.992123,112.380318 102.16745,112.380318 C102.342778,112.380318 102.489741,112.439619 102.608345,112.558223 C102.726949,112.676827 102.78625,112.82379 102.78625,112.999118 C102.78625,113.174446 102.726949,113.321409 102.608345,113.440013 C102.489741,113.558617 102.342778,113.617918 102.16745,113.617918 C101.992123,113.617918 101.845159,113.558617 101.726555,113.440013 C101.607951,113.321409 101.54865,113.174446 101.54865,112.999118 Z M102.92548,119.666689 C102.647019,119.831703 102.363405,119.939992 102.07463,119.991559 C101.785855,120.043126 101.455832,120.068909 101.08455,120.068909 C100.094465,120.068909 99.3983219,119.857487 98.9960998,119.434639 C98.5938778,119.01179 98.3927698,118.377526 98.3927698,117.531828 C98.3927698,116.696444 98.6196609,116.067337 99.0734499,115.644488 C99.5272388,115.221639 100.290418,115.010218 101.36301,115.010218 C101.775545,115.010218 102.193231,115.069519 102.61608,115.188123 C103.038929,115.306727 103.441145,115.438221 103.82274,115.582608 L103.82274,119.604809 C103.82274,119.934837 103.781487,120.246812 103.69898,120.540744 C103.616473,120.834675 103.466931,121.097663 103.25035,121.329714 C103.033769,121.561765 102.74242,121.744825 102.376295,121.878899 C102.01017,122.012973 101.543496,122.080009 100.97626,122.080009 L96.9076497,122.080009 L96.9076497,121.244629 L100.8525,121.244629 C101.151588,121.244629 101.424889,121.221424 101.67241,121.175014 C101.919931,121.128604 102.136509,121.043519 102.32215,120.919759 C102.507791,120.795998 102.652176,120.633565 102.75531,120.432454 C102.858444,120.231343 102.915167,119.97609 102.92548,119.666689 Z M101.06908,119.310879 C101.440362,119.310879 101.780699,119.269626 102.0901,119.187119 C102.399502,119.104611 102.677959,118.991166 102.92548,118.846779 L102.92548,116.154998 C102.585138,116.020924 102.286055,115.928105 102.02822,115.876538 C101.770385,115.824971 101.486772,115.799188 101.17737,115.799188 C100.888595,115.799188 100.62303,115.824971 100.380665,115.876538 C100.1383,115.928105 99.9320358,116.020924 99.7618649,116.154998 C99.591694,116.289072 99.4602003,116.47471 99.3673799,116.711918 C99.2745594,116.949126 99.2281499,117.253367 99.2281499,117.624648 C99.2281499,117.975304 99.2771377,118.261496 99.3751149,118.483234 C99.473092,118.704971 99.607164,118.877718 99.7773349,119.001479 C99.9475058,119.125239 100.146035,119.207745 100.37293,119.248999 C100.599824,119.290252 100.831872,119.310879 101.06908,119.310879 Z M94.4169795,116.727388 C94.4169795,116.531434 94.5201118,116.433458 94.7263795,116.433458 L95.3142395,116.433458 L95.3142395,120.610359 C95.3451797,120.641299 95.4096374,120.692865 95.5076146,120.765059 C95.6055917,120.837252 95.7319288,120.906867 95.8866296,120.973904 C96.0413304,121.040941 96.2295468,121.10282 96.4512846,121.159544 C96.6730224,121.216267 96.9282749,121.244629 97.2170497,121.244629 L97.3562797,121.244629 L97.3562797,122.080009 L97.2170497,122.080009 C97.0004686,122.080009 96.7168547,122.051647 96.3661996,121.994924 C96.0155445,121.9382 95.6648947,121.775767 95.3142395,121.507619 L95.3142395,123.518719 C95.3142395,124.230343 95.1569628,124.751161 94.8424045,125.081189 C94.5278462,125.411217 94.0921122,125.576229 93.5351894,125.576229 C93.1742209,125.576229 92.7720049,125.504036 92.3285293,125.359649 C92.0706946,125.277142 91.972719,125.106974 92.0345993,124.849139 L92.1583593,124.415979 C92.3027467,124.477859 92.4883848,124.542317 92.7152793,124.609354 C92.9421738,124.676391 93.1381252,124.709909 93.3031394,124.709909 C93.7672417,124.709909 94.0689037,124.627403 94.2081344,124.462389 C94.3473652,124.297375 94.4169795,123.967351 94.4169795,123.472309 L94.4169795,116.727388 Z M90.9826392,121.770609 C90.9826392,121.976877 90.8795069,122.080009 90.6732392,122.080009 L90.0853791,122.080009 L90.0853791,112.983648 C90.0853791,112.77738 90.1885114,112.674248 90.3947791,112.674248 L90.9826392,112.674248 L90.9826392,121.770609 Z M87.0532589,116.727388 C87.0532589,116.531434 87.1563912,116.433458 87.3626589,116.433458 L87.9505189,116.433458 L87.9505189,123.518719 C87.9505189,124.230343 87.7932422,124.751161 87.4786839,125.081189 C87.1641256,125.411217 86.7283916,125.576229 86.1714688,125.576229 C85.8105003,125.576229 85.4082843,125.504036 84.9648087,125.359649 C84.706974,125.277142 84.6089983,125.106974 84.6708787,124.849139 L84.7946387,124.415979 C84.9390261,124.477859 85.1246642,124.542317 85.3515587,124.609354 C85.5784532,124.676391 85.7744046,124.709909 85.9394188,124.709909 C86.4035211,124.709909 86.7051831,124.627403 86.8444138,124.462389 C86.9836445,124.297375 87.0532589,123.967351 87.0532589,123.472309 L87.0532589,116.727388 Z M79.1738718,123.766239 C79.1738718,123.590911 79.2331728,123.443948 79.3517768,123.325344 C79.4703807,123.20674 79.6173443,123.147439 79.7926718,123.147439 C79.9679994,123.147439 80.1149629,123.20674 80.2335669,123.325344 C80.3521708,123.443948 80.4114719,123.590911 80.4114719,123.766239 C80.4114719,123.941567 80.3521708,124.08853 80.2335669,124.207134 C80.1149629,124.325738 79.9679994,124.385039 79.7926718,124.385039 C79.6173443,124.385039 79.4703807,124.325738 79.3517768,124.207134 C79.2331728,124.08853 79.1738718,123.941567 79.1738718,123.766239 Z M80.8446319,123.766239 C80.8446319,123.590911 80.903933,123.443948 81.0225369,123.325344 C81.1411409,123.20674 81.2881044,123.147439 81.463432,123.147439 C81.6387595,123.147439 81.7857231,123.20674 81.904327,123.325344 C82.0229309,123.443948 82.082232,123.590911 82.082232,123.766239 C82.082232,123.941567 82.0229309,124.08853 81.904327,124.207134 C81.7857231,124.325738 81.6387595,124.385039 81.463432,124.385039 C81.2881044,124.385039 81.1411409,124.325738 81.0225369,124.207134 C80.903933,124.08853 80.8446319,123.941567 80.8446319,123.766239 Z M81.417022,116.742858 C81.417022,116.536591 81.5201543,116.433458 81.726422,116.433458 L82.314282,116.433458 L82.314282,119.728569 C82.314282,121.296203 81.375778,122.080009 79.4987418,122.080009 L78.4158417,122.080009 L78.4158417,121.244629 L79.4368618,121.244629 C80.0453515,121.244629 80.5274951,121.097665 80.8833069,120.803734 C81.2391187,120.509802 81.417022,120.074068 81.417022,119.496519 L81.417022,116.742858 Z M75.9561115,116.742858 C75.9561115,116.536591 76.0592438,116.433458 76.2655115,116.433458 L76.8533716,116.433458 L76.8533716,120.625829 C76.9771322,120.739276 77.1240957,120.83983 77.2942666,120.927494 C77.4644375,121.015157 77.6732804,121.089928 77.9208017,121.151809 C78.1683229,121.213689 78.4364669,121.244629 78.7252417,121.244629 L78.8954117,121.244629 L78.8954117,122.080009 L78.7252417,122.080009 C78.6014811,122.080009 78.4596742,122.072274 78.2998167,122.056804 C78.1399592,122.041334 77.9646343,122.007816 77.7738367,121.956249 C77.583039,121.904682 77.3948225,121.829911 77.2091816,121.731934 C77.0235407,121.633957 76.858529,121.497306 76.7141416,121.321979 C76.3841132,121.827335 75.7911024,122.080009 74.9350914,122.080009 L73.8212513,122.080009 L73.8212513,121.244629 L74.5174014,121.244629 C75.0433841,121.244629 75.4146604,121.141496 75.6312415,120.935229 C75.8478226,120.728961 75.9561115,120.398938 75.9561115,119.945149 L75.9561115,116.742858 Z M75.5693615,123.889999 C75.5693615,123.714671 75.6286625,123.567708 75.7472665,123.449104 C75.8658704,123.3305 76.012834,123.271199 76.1881615,123.271199 C76.3634891,123.271199 76.5104526,123.3305 76.6290566,123.449104 C76.7476605,123.567708 76.8069616,123.714671 76.8069616,123.889999 C76.8069616,124.065327 76.7476605,124.21229 76.6290566,124.330894 C76.5104526,124.449498 76.3634891,124.508799 76.1881615,124.508799 C76.012834,124.508799 75.8658704,124.449498 75.7472665,124.330894 C75.6286625,124.21229 75.5693615,124.065327 75.5693615,123.889999 Z M71.3615211,116.742858 C71.3615211,116.536591 71.4646534,116.433458 71.6709211,116.433458 L72.2587812,116.433458 L72.2587812,120.625829 C72.3825418,120.739276 72.5295054,120.83983 72.6996762,120.927494 C72.8698471,121.015157 73.07869,121.089928 73.3262113,121.151809 C73.5737325,121.213689 73.8418765,121.244629 74.1306513,121.244629 L74.3008214,121.244629 L74.3008214,122.080009 L74.1306513,122.080009 C74.0068907,122.080009 73.8650838,122.072274 73.7052263,122.056804 C73.5453688,122.041334 73.3700439,122.007816 73.1792463,121.956249 C72.9884486,121.904682 72.8002322,121.829911 72.6145912,121.731934 C72.4289503,121.633957 72.2639386,121.497306 72.1195512,121.321979 C71.7895228,121.827335 71.1965121,122.080009 70.340501,122.080009 L69.2266609,122.080009 L69.2266609,121.244629 L69.922811,121.244629 C70.4487937,121.244629 70.82007,121.141496 71.0366511,120.935229 C71.2532322,120.728961 71.3615211,120.398938 71.3615211,119.945149 L71.3615211,116.742858 Z M71.1449411,114.546118 C71.1449411,114.370791 71.2042422,114.223827 71.3228461,114.105223 C71.4414501,113.986619 71.5884136,113.927318 71.7637412,113.927318 C71.9390687,113.927318 72.0860323,113.986619 72.2046362,114.105223 C72.3232401,114.223827 72.3825412,114.370791 72.3825412,114.546118 C72.3825412,114.721446 72.3232401,114.868409 72.2046362,114.987013 C72.0860323,115.105617 71.9390687,115.164918 71.7637412,115.164918 C71.5884136,115.164918 71.4414501,115.105617 71.3228461,114.987013 C71.2042422,114.868409 71.1449411,114.721446 71.1449411,114.546118 Z M65.5757406,124.601619 C65.7820084,124.601619 66.0011645,124.580993 66.2332157,124.539739 C66.4652669,124.498485 66.6766881,124.423715 66.8674857,124.315424 C67.0582834,124.207133 67.2155602,124.062748 67.3393208,123.882264 C67.4630814,123.70178 67.5249608,123.47231 67.5249608,123.193849 C67.5249608,122.946328 67.4630814,122.719437 67.3393208,122.513169 C67.2155602,122.306901 67.0531268,122.121263 66.8520157,121.956249 C66.6509047,121.791235 66.4137004,121.641693 66.1403957,121.507619 C65.867091,121.373545 65.5860554,121.254943 65.2972806,121.151809 C65.3694743,120.924914 65.4365103,120.70318 65.4983906,120.486599 C65.5499576,120.300958 65.6788729,120.249392 65.8851407,120.331899 L66.3183007,120.517539 C66.4936283,120.600046 66.6715315,120.68513 66.8520157,120.772794 C67.0325,120.860457 67.2310297,120.940385 67.4476108,121.012579 C67.6641919,121.084772 67.9065528,121.141495 68.1747009,121.182749 C68.4428489,121.224002 68.7574024,121.244629 69.1183709,121.244629 L69.814521,121.244629 L69.814521,122.080009 L68.0045308,122.080009 C68.0767245,122.162516 68.1386039,122.257913 68.1901709,122.366204 C68.2417378,122.474494 68.2881473,122.608566 68.3294009,122.768424 C68.3706544,122.928281 68.3912809,123.126811 68.3912809,123.364019 C68.3912809,123.539346 68.3500279,123.743033 68.2675209,123.975084 C68.1850138,124.207135 68.0328936,124.431448 67.8111558,124.648029 C67.589418,124.86461 67.2800211,125.04767 66.8829557,125.197214 C66.4858904,125.346758 65.9728071,125.421529 65.3436906,125.421529 L63.9049805,125.421529 C63.3996246,125.421529 62.8994329,125.385433 62.4043904,125.313239 C61.9093479,125.241045 61.4658789,125.091504 61.0739703,124.864609 C60.6820616,124.637715 60.3649297,124.315426 60.1225652,123.897734 C59.8802006,123.480042 59.7590202,122.925706 59.7590202,122.234709 C59.7590202,121.739666 59.8131646,121.249788 59.9214552,120.765059 C60.0297457,120.28033 60.140613,119.862644 60.2540602,119.511989 C60.4912681,119.553242 60.6872195,119.594495 60.8419202,119.635749 C60.9759943,119.666689 61.0172472,119.769821 60.9656803,119.945149 C60.8934866,120.22361 60.813559,120.551055 60.7258952,120.927494 C60.6382315,121.303932 60.5944002,121.739666 60.5944002,122.234709 C60.5944002,122.843199 60.718159,123.307294 60.9656803,123.627009 C61.2132015,123.946724 61.5200201,124.178772 61.8861453,124.323159 C62.2522705,124.467546 62.6519082,124.550052 63.0850704,124.570679 C63.5182326,124.591306 63.9204486,124.601619 64.2917305,124.601619 L65.5757406,124.601619 Z M48.1513628,112.983648 C48.1513628,112.77738 48.2596517,112.674248 48.4762328,112.674248 L49.0486228,112.674248 L49.0486228,120.610359 C49.1620701,120.734119 49.303877,120.83983 49.4740479,120.927494 C49.6442187,121.015157 49.8504834,121.089928 50.0928479,121.151809 C50.3352125,121.213689 50.6265613,121.244629 50.966903,121.244629 L52.1271531,121.244629 C52.0652728,121.203375 51.9930802,121.128604 51.9105731,121.020314 C51.828066,120.912023 51.7455601,120.767638 51.6630531,120.587154 C51.580546,120.406669 51.5109317,120.184935 51.454208,119.921944 C51.3974844,119.658952 51.369123,119.352134 51.369123,119.001479 C51.369123,118.54769 51.4181109,118.142895 51.516088,117.787083 C51.6140652,117.431272 51.7816552,117.12961 52.0188631,116.882088 C52.256071,116.634567 52.5706245,116.443772 52.9625332,116.309698 C53.3544418,116.175624 53.8494769,116.108588 54.4476533,116.108588 C54.9117556,116.108588 55.3603812,116.142106 55.7935434,116.209143 C56.2267056,116.27618 56.5464158,116.335481 56.7526835,116.387048 C56.7114299,116.531436 56.6650204,116.691291 56.6134535,116.866618 C56.5515731,117.083199 56.3814048,117.165705 56.1029434,117.114138 C55.7213481,117.052258 55.4119512,117.008427 55.1747433,116.982643 C54.9375355,116.95686 54.6384518,116.943968 54.2774833,116.943968 C53.8443211,116.943968 53.4936712,116.998113 53.2255232,117.106403 C52.9573752,117.214694 52.7485322,117.361657 52.5989881,117.547298 C52.449444,117.732939 52.3463117,117.954674 52.2895881,118.212508 C52.2328645,118.470343 52.2045031,118.743644 52.2045031,119.032419 C52.2045031,119.506834 52.2663825,119.888424 52.3901431,120.177199 C52.5139037,120.465973 52.6608673,120.690286 52.8310381,120.850144 C53.001209,121.010001 53.1739556,121.115712 53.3492832,121.167279 C53.5246107,121.218846 53.668996,121.244629 53.7824432,121.244629 L56.3659334,121.244629 C56.5722012,121.244629 56.6753335,121.347761 56.6753335,121.554029 L56.6753335,122.080009 L50.966903,122.080009 C50.8431424,122.080009 50.6858656,122.069696 50.495068,122.049069 C50.3042703,122.028442 50.1083189,121.989767 49.9072079,121.933044 C49.7060969,121.87632 49.5101455,121.796393 49.3193479,121.693259 C49.1285502,121.590125 48.9609602,121.450896 48.8165728,121.275569 C48.661872,121.52309 48.4504508,121.719041 48.1823028,121.863429 C47.9141547,122.007816 47.5531916,122.080009 47.0994027,122.080009 L46.0629126,122.080009 C46.1351063,122.162516 46.1969857,122.257913 46.2485526,122.366204 C46.3001195,122.474494 46.3465291,122.608566 46.3877826,122.768424 C46.4290362,122.928281 46.4496626,123.126811 46.4496626,123.364019 C46.4496626,123.539346 46.4084097,123.743033 46.3259026,123.975084 C46.2433955,124.207135 46.0912754,124.431448 45.8695376,124.648029 C45.6477998,124.86461 45.3384028,125.04767 44.9413375,125.197214 C44.5442721,125.346758 44.0311889,125.421529 43.4020724,125.421529 L41.9633622,125.421529 C41.4580063,125.421529 40.9578146,125.385433 40.4627721,125.313239 C39.9677296,125.241045 39.5242607,125.091504 39.132352,124.864609 C38.7404434,124.637715 38.4233115,124.315426 38.1809469,123.897734 C37.9385824,123.480042 37.8174019,122.925706 37.8174019,122.234709 C37.8174019,121.739666 37.8715464,121.249788 37.9798369,120.765059 C38.0881275,120.28033 38.1989947,119.862644 38.3124419,119.511989 C38.5187097,119.553242 38.6991912,119.594495 38.853892,119.635749 C38.987966,119.666689 39.0292189,119.769821 38.977652,119.945149 C38.9054583,120.22361 38.8255308,120.551055 38.737867,120.927494 C38.6502032,121.303932 38.606372,121.739666 38.606372,122.234709 C38.606372,122.843199 38.7301307,123.307294 38.977652,123.627009 C39.2251733,123.946724 39.5319919,124.178772 39.8981171,124.323159 C40.2642423,124.467546 40.66388,124.550052 41.0970422,124.570679 C41.5302044,124.591306 41.9324204,124.601619 42.3037023,124.601619 L43.6341224,124.601619 C43.8403901,124.601619 44.0595463,124.580993 44.2915974,124.539739 C44.5236486,124.498485 44.7350699,124.423715 44.9258675,124.315424 C45.1166651,124.207133 45.2739419,124.062748 45.3977025,123.882264 C45.5214632,123.70178 45.5833425,123.47231 45.5833425,123.193849 C45.5833425,122.946328 45.5214632,122.719437 45.3977025,122.513169 C45.2739419,122.306901 45.1115085,122.121263 44.9103975,121.956249 C44.7092865,121.791235 44.4720822,121.641693 44.1987774,121.507619 C43.9254727,121.373545 43.6444372,121.254943 43.3556624,121.151809 C43.4278561,120.924914 43.4948921,120.70318 43.5567724,120.486599 C43.6083393,120.300958 43.7372547,120.249392 43.9435224,120.331899 L44.3766824,120.517539 C44.55201,120.600046 44.7299132,120.68513 44.9103975,120.772794 C45.0908817,120.860457 45.2894114,120.940385 45.5059925,121.012579 C45.7225736,121.084772 45.9649346,121.141495 46.2330826,121.182749 C46.4290369,121.213689 46.6456148,121.234315 46.8828227,121.244629 C47.3572384,121.224002 47.6821052,121.100243 47.8574327,120.873349 C48.0533871,120.615514 48.1513628,120.275177 48.1513628,119.852329 L48.1513628,112.983648 Z M33.6817551,116.742858 C33.6817551,116.536591 33.7848874,116.433458 33.9911552,116.433458 L34.5790152,116.433458 L34.5790152,119.728569 C34.5790152,121.296203 33.6405112,122.080009 31.763475,122.080009 L30.6805749,122.080009 L30.6805749,121.244629 L31.701595,121.244629 C32.3100847,121.244629 32.7922283,121.097665 33.1480401,120.803734 C33.5038519,120.509802 33.6817551,120.074068 33.6817551,119.496519 L33.6817551,116.742858 Z M32.598855,123.889999 C32.598855,123.714671 32.6581561,123.567708 32.7767601,123.449104 C32.895364,123.3305 33.0423275,123.271199 33.2176551,123.271199 C33.3929826,123.271199 33.5399462,123.3305 33.6585501,123.449104 C33.7771541,123.567708 33.8364551,123.714671 33.8364551,123.889999 C33.8364551,124.065327 33.7771541,124.21229 33.6585501,124.330894 C33.5399462,124.449498 33.3929826,124.508799 33.2176551,124.508799 C33.0423275,124.508799 32.895364,124.449498 32.7767601,124.330894 C32.6581561,124.21229 32.598855,124.065327 32.598855,123.889999 Z M28.2208447,116.742858 C28.2208447,116.536591 28.323977,116.433458 28.5302447,116.433458 L29.1181047,116.433458 L29.1181047,120.625829 C29.2418654,120.739276 29.3888289,120.83983 29.5589998,120.927494 C29.7291707,121.015157 29.9380136,121.089928 30.1855348,121.151809 C30.4330561,121.213689 30.7012001,121.244629 30.9899749,121.244629 L31.1601449,121.244629 L31.1601449,122.080009 L30.9899749,122.080009 C30.8662143,122.080009 30.7244073,122.072274 30.5645499,122.056804 C30.4046924,122.041334 30.2293675,122.007816 30.0385698,121.956249 C29.8477722,121.904682 29.6595557,121.829911 29.4739148,121.731934 C29.2882738,121.633957 29.1232621,121.497306 28.9788747,121.321979 C28.6488464,121.827335 28.0558356,122.080009 27.1998246,122.080009 L26.0859845,122.080009 L26.0859845,121.244629 L26.7821346,121.244629 C27.3081172,121.244629 27.6793935,121.141496 27.8959746,120.935229 C28.1125557,120.728961 28.2208447,120.398938 28.2208447,119.945149 L28.2208447,116.742858 Z M27.1843546,123.766239 C27.1843546,123.590911 27.2436557,123.443948 27.3622596,123.325344 C27.4808635,123.20674 27.6278271,123.147439 27.8031546,123.147439 C27.9784822,123.147439 28.1254457,123.20674 28.2440497,123.325344 C28.3626536,123.443948 28.4219547,123.590911 28.4219547,123.766239 C28.4219547,123.941567 28.3626536,124.08853 28.2440497,124.207134 C28.1254457,124.325738 27.9784822,124.385039 27.8031546,124.385039 C27.6278271,124.385039 27.4808635,124.325738 27.3622596,124.207134 C27.2436557,124.08853 27.1843546,123.941567 27.1843546,123.766239 Z M28.8551147,123.766239 C28.8551147,123.590911 28.9144158,123.443948 29.0330197,123.325344 C29.1516237,123.20674 29.2985872,123.147439 29.4739148,123.147439 C29.6492423,123.147439 29.7962059,123.20674 29.9148098,123.325344 C30.0334138,123.443948 30.0927148,123.590911 30.0927148,123.766239 C30.0927148,123.941567 30.0334138,124.08853 29.9148098,124.207134 C29.7962059,124.325738 29.6492423,124.385039 29.4739148,124.385039 C29.2985872,124.385039 29.1516237,124.325738 29.0330197,124.207134 C28.9144158,124.08853 28.8551147,123.941567 28.8551147,123.766239 Z M23.6262543,116.742858 C23.6262543,116.536591 23.7293866,116.433458 23.9356543,116.433458 L24.5235144,116.433458 L24.5235144,120.625829 C24.647275,120.739276 24.7942385,120.83983 24.9644094,120.927494 C25.1345803,121.015157 25.3434232,121.089928 25.5909445,121.151809 C25.8384657,121.213689 26.1066097,121.244629 26.3953845,121.244629 L26.5655545,121.244629 L26.5655545,122.080009 L26.3953845,122.080009 C26.2716239,122.080009 26.129817,122.072274 25.9699595,122.056804 C25.810102,122.041334 25.6347771,122.007816 25.4439794,121.956249 C25.2531818,121.904682 25.0649653,121.829911 24.8793244,121.731934 C24.6936835,121.633957 24.5286718,121.497306 24.3842844,121.321979 C24.054256,121.827335 23.4612452,122.080009 22.6052342,122.080009 L21.4913941,122.080009 L21.4913941,121.244629 L22.1875442,121.244629 C22.7135268,121.244629 23.0848032,121.141496 23.3013843,120.935229 C23.5179654,120.728961 23.6262543,120.398938 23.6262543,119.945149 L23.6262543,116.742858 Z M23.4096743,114.546118 C23.4096743,114.370791 23.4689754,114.223827 23.5875793,114.105223 C23.7061832,113.986619 23.8531468,113.927318 24.0284743,113.927318 C24.2038019,113.927318 24.3507654,113.986619 24.4693694,114.105223 C24.5879733,114.223827 24.6472744,114.370791 24.6472744,114.546118 C24.6472744,114.721446 24.5879733,114.868409 24.4693694,114.987013 C24.3507654,115.105617 24.2038019,115.164918 24.0284743,115.164918 C23.8531468,115.164918 23.7061832,115.105617 23.5875793,114.987013 C23.4689754,114.868409 23.4096743,114.721446 23.4096743,114.546118 Z M16.5409937,114.468768 C16.5409937,114.293441 16.6002948,114.146477 16.7188987,114.027873 C16.8375027,113.909269 16.9844662,113.849968 17.1597938,113.849968 C17.3351213,113.849968 17.4820849,113.909269 17.6006888,114.027873 C17.7192927,114.146477 17.7785938,114.293441 17.7785938,114.468768 C17.7785938,114.644096 17.7192927,114.791059 17.6006888,114.909663 C17.4820849,115.028267 17.3351213,115.087568 17.1597938,115.087568 C16.9844662,115.087568 16.8375027,115.028267 16.7188987,114.909663 C16.6002948,114.791059 16.5409937,114.644096 16.5409937,114.468768 Z M18.2117538,114.468768 C18.2117538,114.293441 18.2710549,114.146477 18.3896589,114.027873 C18.5082628,113.909269 18.6552263,113.849968 18.8305539,113.849968 C19.0058815,113.849968 19.152845,113.909269 19.2714489,114.027873 C19.3900529,114.146477 19.4493539,114.293441 19.4493539,114.468768 C19.4493539,114.644096 19.3900529,114.791059 19.2714489,114.909663 C19.152845,115.028267 19.0058815,115.087568 18.8305539,115.087568 C18.6552263,115.087568 18.5082628,115.028267 18.3896589,114.909663 C18.2710549,114.791059 18.2117538,114.644096 18.2117538,114.468768 Z M21.9554942,121.244629 L21.9554942,122.080009 L21.3212241,122.080009 C21.1768367,122.080009 21.0298732,122.054226 20.8803291,122.002659 C20.730785,121.951092 20.6018696,121.878899 20.493579,121.786079 C20.3852885,121.693258 20.297626,121.597861 20.230589,121.499884 C20.163552,121.401907 20.1145642,121.316822 20.083624,121.244629 C20.0114303,121.316822 19.9134546,121.407063 19.789694,121.515354 C19.6659333,121.623644 19.5163915,121.726777 19.3410639,121.824754 C19.1657364,121.922731 18.9594718,122.007815 18.7222639,122.080009 C18.485056,122.152203 18.216912,122.188299 17.9178238,122.188299 C17.5671687,122.188299 17.2319887,122.147046 16.9122737,122.064539 C16.5925588,121.982032 16.3037883,121.824755 16.0459537,121.592704 C15.788119,121.360653 15.5792761,121.030629 15.4194186,120.602624 C15.2595611,120.174618 15.1796336,119.615125 15.1796336,118.924129 C15.1796336,118.511593 15.2260431,118.122269 15.3188636,117.756143 C15.4116841,117.390018 15.5663825,117.070308 15.7829636,116.797003 C15.9995447,116.523699 16.2857369,116.304542 16.6415487,116.139528 C16.9973605,115.974514 17.453721,115.892008 18.0106438,115.892008 C18.3200454,115.892008 18.6191291,115.907478 18.9079039,115.938418 C19.1966787,115.969358 19.4648227,116.008033 19.712344,116.054443 C19.9598652,116.100854 20.3002019,116.175624 20.7333641,116.278758 L20.7333641,120.409249 C20.7333641,120.698023 20.8210265,120.909445 20.9963541,121.043519 C21.1716816,121.177593 21.3779463,121.244629 21.6151541,121.244629 L21.9554942,121.244629 Z M19.836104,116.974908 C19.5060756,116.882088 19.1941004,116.822787 18.9001689,116.797003 C18.6062374,116.77122 18.3561416,116.758328 18.1498738,116.758328 C17.8507857,116.758328 17.5800633,116.784111 17.3376988,116.835678 C17.0953342,116.887245 16.8813347,116.992956 16.6956937,117.152813 C16.5100528,117.312671 16.3605109,117.536984 16.2470637,117.825758 C16.1336164,118.114533 16.0768937,118.490966 16.0768937,118.955069 C16.0768937,119.821393 16.2444837,120.437609 16.5796687,120.803734 C16.9148537,121.169859 17.4021539,121.352919 18.0415838,121.352919 C18.3509854,121.352919 18.6191294,121.298774 18.8460239,121.190484 C19.0729184,121.082193 19.2662915,120.966169 19.4261489,120.842409 C19.5860064,120.718648 19.7226567,120.574263 19.836104,120.409249 L19.836104,116.974908 Z" id="path-3"></path>
        <filter x="-37.8%" y="-200.8%" width="175.6%" height="607.7%" filterUnits="objectBoundingBox" id="filter-4">
            <feOffset dx="0" dy="7" in="SourceAlpha" result="shadowOffsetOuter1"></feOffset>
            <feGaussianBlur stdDeviation="10" in="shadowOffsetOuter1" result="shadowBlurOuter1"></feGaussianBlur>
            <feColorMatrix values="0 0 0 0 0   0 0 0 0 0   0 0 0 0 0  0 0 0 0.298092165 0" type="matrix" in="shadowBlurOuter1"></feColorMatrix>
        </filter>
        <path d="M4.43407194,83.4873844 L4.43407194,89.0989989 L11.3869992,89.0989989 L11.3869992,90.4676854 C11.3869992,90.9239165 11.158887,91.1520286 10.7026559,91.1520286 L4.43407194,91.1520286 L4.43407194,97.6669762 L14.0969984,97.6669762 L14.0969984,98.9809152 C14.0969984,99.4736448 13.8415128,99.7200059 13.330534,99.7200059 L4.78993042,99.7200059 C4.05996065,99.7200059 3.47143136,99.5375162 3.02432488,99.1725313 C2.5772184,98.8075464 2.35366851,98.3056997 2.35366851,97.6669762 L2.35366851,83.8979903 C2.35366851,83.2592668 2.44035112,82.7756691 2.61371894,82.4471827 C2.78708676,82.1186963 3.01063665,81.8814597 3.28437531,81.7354657 C3.55811397,81.5894718 3.85465974,81.5119136 4.17402151,81.502789 C4.49338328,81.4936644 4.78992905,81.4891022 5.06366771,81.4891022 L14.0969984,81.4891022 L14.0969984,82.9399098 C14.0969984,83.3048947 13.8962597,83.4873844 13.4947763,83.4873844 L4.43407194,83.4873844 Z M26.3878028,89.4548574 C26.3513043,89.6191006 26.2783085,89.7559679 26.168813,89.8654633 C26.0593175,89.9749588 25.8859523,89.9840833 25.6487121,89.8928371 C25.3932227,89.8015908 24.9963076,89.7149082 24.4579549,89.6327866 C23.9196022,89.550665 23.2672015,89.5096048 22.5007333,89.5096048 C21.8437605,89.5096048 21.3282271,89.5552273 20.9541176,89.6464735 C20.5800081,89.7377197 20.3017113,89.8609003 20.1192188,90.0160188 C19.9367264,90.1711374 19.8272326,90.3445026 19.7907341,90.5361197 C19.7542356,90.7277368 19.7359866,90.9147887 19.7359866,91.0972811 C19.7359866,91.6265092 19.9640987,91.9732397 20.4203298,92.1374829 C20.8765609,92.3017261 21.5654596,92.4203444 22.4870464,92.4933413 C23.4086332,92.5663383 24.1705277,92.6849566 24.7727528,92.8491998 C25.3749779,93.013443 25.8585756,93.2461174 26.2235604,93.5472299 C26.5885453,93.8483424 26.8349064,94.2498198 26.9626511,94.751674 C27.0903958,95.2535282 27.1542672,95.7416882 27.1542672,96.2161685 C27.1542672,96.6906489 27.0630224,97.1468731 26.88053,97.584855 C26.6980375,98.0228368 26.3969295,98.4151897 25.9771969,98.7619253 C25.5574643,99.108661 25.0099952,99.3869578 24.3347731,99.5968241 C23.6595511,99.8066904 22.810974,99.911622 21.7890163,99.911622 C21.2050405,99.911622 20.6758203,99.8842485 20.20134,99.8295008 C19.7268597,99.7747531 19.2934466,99.7017572 18.9010879,99.610511 C18.5087291,99.5192647 18.1391875,99.4097709 17.7924518,99.2820262 L17.7924518,97.9133397 C17.7924518,97.8038443 17.8107008,97.7125994 17.8471993,97.6396024 C17.8836978,97.5666055 17.9338824,97.5118586 17.9977548,97.4753601 C18.0616271,97.4388616 18.1665587,97.4388616 18.3125527,97.4753601 C18.6775376,97.5666063 19.1520108,97.6624134 19.7359866,97.7627842 C20.3199624,97.8631551 21.0225478,97.9133397 21.8437638,97.9133397 C22.5007365,97.9133397 23.0390812,97.8722796 23.4588138,97.790158 C23.8785464,97.7080364 24.2070279,97.5939803 24.444268,97.4479863 C24.6815082,97.3019924 24.845749,97.1286272 24.9369952,96.9278855 C25.0282414,96.7271438 25.0738638,96.4990317 25.0738638,96.2435423 C25.0738638,95.9880528 25.0510526,95.7599407 25.0054295,95.559199 C24.9598064,95.3584573 24.8411881,95.1850921 24.649571,95.0390982 C24.457954,94.8931042 24.1796572,94.7699237 23.8146723,94.6695528 C23.4496874,94.569182 22.8702826,94.4824994 22.0764405,94.4095024 C21.2825983,94.3365054 20.5845752,94.2087626 19.9823502,94.0262702 C19.3801251,93.8437777 18.9010896,93.6156656 18.5452294,93.3419269 C18.1893691,93.0681883 17.9475703,92.7488313 17.8198256,92.3838464 C17.6920808,92.0188615 17.6373339,91.6356332 17.6555832,91.2341498 C17.6555832,90.8144172 17.7377035,90.3901286 17.9019467,89.9612714 C18.0661899,89.5324141 18.3444867,89.1446235 18.7368455,88.7978879 C19.1292042,88.4511522 19.6447376,88.1774177 20.2834612,87.976676 C20.9221847,87.7759343 21.7068905,87.675565 22.6376019,87.675565 C23.239827,87.675565 23.7827338,87.7075007 24.2663388,87.771373 C24.7499438,87.8352454 25.1787946,87.9128035 25.5529041,88.0040497 C25.9270136,88.095296 26.2691818,88.1956653 26.5794189,88.3051608 L26.3878028,89.4548574 Z M33.5323462,89.8654633 L33.5323462,96.270916 C33.5505954,96.9278888 33.7148361,97.3749885 34.0250733,97.6122287 C34.3353104,97.8494689 34.9010285,97.9680872 35.7222445,97.9680872 C35.9777339,97.9680872 36.2788419,97.9407137 36.6255776,97.885966 L37.3099208,97.7764711 C37.4559148,97.7399726 37.5654086,97.7536593 37.6384056,97.8175317 C37.7114025,97.881404 37.7479005,98.0137091 37.7479005,98.2144508 L37.7479005,99.4736423 C37.638405,99.5648885 37.3509837,99.6606956 36.885628,99.7610665 C36.4202723,99.8614373 35.8408675,99.911622 35.1473962,99.911622 C34.7276636,99.911622 34.2988128,99.8523128 33.8608309,99.7336927 C33.4228491,99.6150727 33.0259339,99.4188962 32.6700737,99.1451576 C32.3142134,98.8714189 32.0176677,98.515564 31.7804275,98.0775821 C31.5431873,97.6396003 31.424569,97.1012556 31.424569,96.4625321 L31.424569,84.3633437 L33.039619,83.9527378 C33.1308653,83.9162393 33.2084234,83.9071148 33.2722957,83.9253641 C33.3361681,83.9436133 33.3954772,83.9892357 33.450225,84.0622327 C33.5049727,84.1352297 33.5323462,84.2629725 33.5323462,84.4454649 L33.5323462,87.7850599 L37.2277996,87.7850599 L37.2277996,89.2084938 C37.2277996,89.445734 37.1821772,89.614537 37.090931,89.7149078 C36.9996847,89.8152787 36.8628175,89.8654633 36.680325,89.8654633 L33.5323462,89.8654633 Z M43.4963836,83.7063742 C43.7701223,83.9436144 43.9069896,84.2720959 43.9069896,84.6918285 C43.9069896,85.1115611 43.7746845,85.4446048 43.5100705,85.6909696 C43.2454564,85.9373344 42.9215372,86.060515 42.5383031,86.060515 C42.1733182,86.060515 41.8539612,85.9373344 41.5802226,85.6909696 C41.3064839,85.4446048 41.1696166,85.1115611 41.1696166,84.6918285 C41.1696166,84.2720959 41.3064839,83.9436144 41.5802226,83.7063742 C41.8539612,83.4691341 42.1733182,83.3505158 42.5383031,83.3505158 C42.9215372,83.3505158 43.2408942,83.4691341 43.4963836,83.7063742 Z M44.8103226,97.6669762 C44.9745658,97.6669762 45.0931841,97.7125986 45.1661811,97.8038448 C45.2391781,97.895091 45.275676,98.0228338 45.275676,98.187077 L45.275676,99.7200059 L43.6332523,99.7200059 C43.3960121,99.7200059 43.1542132,99.6789457 42.9078484,99.5968241 C42.6614836,99.5147025 42.4333715,99.3687107 42.2235052,99.1588444 C42.0136389,98.9489781 41.8402737,98.6752436 41.7034043,98.3376325 C41.566535,98.0000215 41.4981014,97.575733 41.4981014,97.0647541 L41.4981014,87.7850599 L43.0310302,87.7850599 C43.2500211,87.7850599 43.4051374,87.8169956 43.4963836,87.880868 C43.5876298,87.9447403 43.6332523,88.1044188 43.6332523,88.3599082 L43.6332523,96.9826329 C43.6332523,97.1833746 43.6743124,97.3293664 43.756434,97.4206126 C43.8385556,97.5118588 43.938925,97.5757302 44.0575451,97.6122287 C44.1761652,97.6487272 44.3084702,97.6669762 44.4544641,97.6669762 L44.8103226,97.6669762 Z M57.5664805,89.4548574 C57.529982,89.6191006 57.4569861,89.7559679 57.3474906,89.8654633 C57.2379952,89.9749588 57.0646299,89.9840833 56.8273898,89.8928371 C56.5719004,89.8015908 56.1749852,89.7149082 55.6366325,89.6327866 C55.0982798,89.550665 54.4458792,89.5096048 53.6794109,89.5096048 C53.0224381,89.5096048 52.5069047,89.5552273 52.1327952,89.6464735 C51.7586857,89.7377197 51.4803889,89.8609003 51.2978965,90.0160188 C51.115404,90.1711374 51.0059102,90.3445026 50.9694117,90.5361197 C50.9329132,90.7277368 50.9146642,90.9147887 50.9146642,91.0972811 C50.9146642,91.6265092 51.1427764,91.9732397 51.5990075,92.1374829 C52.0552386,92.3017261 52.7441372,92.4203444 53.665724,92.4933413 C54.5873109,92.5663383 55.3492054,92.6849566 55.9514304,92.8491998 C56.5536555,93.013443 57.0372532,93.2461174 57.4022381,93.5472299 C57.767223,93.8483424 58.0135841,94.2498198 58.1413288,94.751674 C58.2690735,95.2535282 58.3329449,95.7416882 58.3329449,96.2161685 C58.3329449,96.6906489 58.2417,97.1468731 58.0592076,97.584855 C57.8767151,98.0228368 57.5756071,98.4151897 57.1558745,98.7619253 C56.7361419,99.108661 56.1886728,99.3869578 55.5134508,99.5968241 C54.8382287,99.8066904 53.9896516,99.911622 52.9676939,99.911622 C52.3837181,99.911622 51.854498,99.8842485 51.3800176,99.8295008 C50.9055373,99.7747531 50.4721242,99.7017572 50.0797655,99.610511 C49.6874068,99.5192647 49.3178651,99.4097709 48.9711295,99.2820262 L48.9711295,97.9133397 C48.9711295,97.8038443 48.9893784,97.7125994 49.0258769,97.6396024 C49.0623754,97.5666055 49.1125601,97.5118586 49.1764324,97.4753601 C49.2403048,97.4388616 49.3452364,97.4388616 49.4912303,97.4753601 C49.8562152,97.5666063 50.3306884,97.6624134 50.9146642,97.7627842 C51.4986401,97.8631551 52.2012254,97.9133397 53.0224414,97.9133397 C53.6794142,97.9133397 54.2177588,97.8722796 54.6374914,97.790158 C55.057224,97.7080364 55.3857055,97.5939803 55.6229457,97.4479863 C55.8601859,97.3019924 56.0244266,97.1286272 56.1156728,96.9278855 C56.206919,96.7271438 56.2525415,96.4990317 56.2525415,96.2435423 C56.2525415,95.9880528 56.2297302,95.7599407 56.1841071,95.559199 C56.138484,95.3584573 56.0198657,95.1850921 55.8282487,95.0390982 C55.6366316,94.8931042 55.3583348,94.7699237 54.9933499,94.6695528 C54.628365,94.569182 54.0489602,94.4824994 53.2551181,94.4095024 C52.461276,94.3365054 51.7632529,94.2087626 51.1610278,94.0262702 C50.5588028,93.8437777 50.0797673,93.6156656 49.723907,93.3419269 C49.3680468,93.0681883 49.1262479,92.7488313 48.9985032,92.3838464 C48.8707585,92.0188615 48.8160116,91.6356332 48.8342608,91.2341498 C48.8342608,90.8144172 48.9163812,90.3901286 49.0806244,89.9612714 C49.2448676,89.5324141 49.5231644,89.1446235 49.9155231,88.7978879 C50.3078819,88.4511522 50.8234153,88.1774177 51.4621388,87.976676 C52.1008624,87.7759343 52.8855681,87.675565 53.8162795,87.675565 C54.4185046,87.675565 54.9614115,87.7075007 55.4450164,87.771373 C55.9286214,87.8352454 56.3574722,87.9128035 56.7315817,88.0040497 C57.1056912,88.095296 57.4478594,88.1956653 57.7580966,88.3051608 L57.5664805,89.4548574 Z M67.9958713,87.7850599 C69.6018048,87.7850599 70.7651767,88.1181036 71.4860218,88.784201 C72.2068669,89.4502984 72.5672841,90.4038071 72.5672841,91.6447557 L72.5672841,99.0904101 C72.5672841,99.309401 72.5216617,99.4690795 72.4304155,99.5694504 C72.3391692,99.6698212 72.202302,99.7200059 72.0198095,99.7200059 L70.4047595,99.7200059 L70.4047595,91.5900083 C70.4047595,90.1848165 69.6018048,89.4822311 67.9958713,89.4822311 C66.6819257,89.4822311 65.5504896,89.7103432 64.6015289,90.1665744 L64.6015289,99.0904101 C64.6015289,99.309401 64.5604687,99.4690795 64.4783471,99.5694504 C64.3962255,99.6698212 64.2639205,99.7200059 64.081428,99.7200059 L62.4390043,99.7200059 L62.4390043,81.5438496 L63.8624382,81.5438496 C64.3551678,81.5438496 64.6015289,81.7810862 64.6015289,82.2555666 L64.6015289,88.6062718 C65.130757,88.3325331 65.6873506,88.1272322 66.2713264,87.9903629 C66.8553022,87.8534935 67.4301447,87.7850599 67.9958713,87.7850599 Z M76.5364748,91.2888973 C76.5364748,90.9056631 76.6368442,90.508748 76.8375859,90.09814 C77.0383276,89.687532 77.3394356,89.3134281 77.7409189,88.9758171 C78.1424023,88.6382061 78.6533735,88.3553471 79.2738478,88.1272315 C79.8943221,87.899116 80.6242809,87.7850599 81.4637461,87.7850599 C81.9564757,87.7850599 82.4309489,87.8078711 82.88718,87.8534942 C83.3434111,87.8991173 83.7403263,87.9629887 84.0779373,88.0451103 C84.4155483,88.1272319 84.6755961,88.2047901 84.8580886,88.277787 C85.040581,88.350784 85.1500748,88.4785268 85.1865733,88.6610192 C85.2230718,88.8435117 85.1956983,89.0716238 85.1044521,89.3453625 L84.8033411,90.2760693 C84.5843502,90.2213215 84.3288646,90.1665746 84.0368767,90.1118269 C83.7448888,90.0570792 83.3981583,90.0023322 82.996675,89.9475845 C82.5951916,89.8928368 82.1389673,89.8654633 81.6279885,89.8654633 C81.0440127,89.8654633 80.5649772,89.9293347 80.1908677,90.0570794 C79.8167582,90.1848241 79.5202124,90.3399404 79.3012215,90.5224328 C79.0822306,90.7049253 78.9316766,90.9011017 78.849555,91.110968 C78.7674334,91.3208343 78.7263732,91.5170107 78.7263732,91.6995032 L78.7263732,99.0904101 C78.7263732,99.309401 78.667064,99.4690795 78.5484439,99.5694504 C78.4298239,99.6698212 78.2427719,99.7200059 77.9872825,99.7200059 L76.5364748,99.7200059 L76.5364748,91.2888973 Z M92.6048539,87.5660701 C93.2983252,87.5660701 93.9507259,87.6299415 94.5620756,87.7576862 C95.1734253,87.8854309 95.7117699,88.0998563 96.1771256,88.4009688 C96.6424813,88.7020813 97.012023,89.1081209 97.2857616,89.6190998 C97.5595003,90.1300786 97.6963676,90.7687926 97.6963676,91.5352608 L97.6963676,98.8440465 C97.3131335,99.0812867 96.8842827,99.2865876 96.4098023,99.4599554 C95.935322,99.6333233 95.3832906,99.7838773 94.7536917,99.911622 C94.1240928,100.039367 93.3986962,100.103238 92.5774802,100.103238 C91.811012,100.103238 91.1494868,100.034804 90.5928848,99.8979351 C90.0362829,99.7610658 89.5253117,99.5420781 89.059956,99.2409656 C88.5946003,98.9398531 88.2159341,98.5292513 87.9239462,98.0091478 C87.6319583,97.4890443 87.4859666,96.8731416 87.4859666,96.1614211 C87.4859666,95.1942111 87.8646327,94.4323166 88.6219763,93.8757147 C89.37932,93.3191127 90.3921378,92.9632578 91.6604603,92.8081392 C92.9287827,92.6530207 93.836669,92.5480891 94.3841463,92.4933413 C94.9316237,92.4385936 95.35135,92.3929712 95.6433379,92.3564727 L95.6433379,91.2615235 C95.6433379,91.0790311 95.5931532,90.8874169 95.4927824,90.6866752 C95.3924115,90.4859335 95.2236086,90.3034438 94.9863684,90.1392006 C94.7491282,89.9749574 94.4343335,89.8426524 94.0419747,89.7422815 C93.649616,89.6419107 93.1705805,89.591726 92.6048539,89.591726 C91.8931334,89.591726 91.2316082,89.6510352 90.6202586,89.7696553 C90.0089089,89.8882754 89.5025,90.0023314 89.1010166,90.1118269 C88.6995332,90.2395716 88.4987945,90.1209533 88.4987945,89.7559684 L88.4987945,88.2230396 C88.8637794,88.0952949 89.2424456,87.985801 89.6348043,87.8945548 C90.0271631,87.8033086 90.4605761,87.7257505 90.9350564,87.6618781 C91.4095368,87.5980058 91.9661304,87.5660701 92.6048539,87.5660701 Z M95.6159642,94.4368761 C95.3422255,94.4551254 95.0548042,94.4779366 94.7536917,94.5053104 C94.4525792,94.5326843 94.1195354,94.56462 93.7545506,94.6011185 L92.194248,94.7379871 C91.519026,94.8109841 90.9076855,94.9569759 90.3602081,95.1759668 C89.8127308,95.3949577 89.5389963,95.7690616 89.5389963,96.2982897 C89.5389963,96.8275178 89.8081686,97.2563686 90.3465213,97.584855 C90.884874,97.9133414 91.619395,98.0775821 92.5501065,98.0775821 C93.334824,98.0775821 93.9644134,98.0365219 94.4388938,97.9544003 C94.9133741,97.8722787 95.305727,97.7582227 95.6159642,97.6122287 L95.6159642,94.4368761 Z M107.140304,81.5438496 C107.687782,81.5438496 108.212439,81.5849098 108.714294,81.6670314 C109.216148,81.749153 109.622187,81.8358356 109.932425,81.9270818 C109.895926,82.1825712 109.854866,82.4426191 109.809243,82.7072331 C109.76362,82.9718472 109.713435,83.1771481 109.658687,83.323142 C109.60394,83.4873852 109.530944,83.6014413 109.439697,83.6653136 C109.348451,83.729186 109.165962,83.7246238 108.892223,83.6516268 C108.527238,83.596879 108.121198,83.5558189 107.674092,83.528445 C107.226985,83.5010711 106.802697,83.5330068 106.401213,83.624253 C105.99973,83.7154993 105.666686,83.897989 105.402072,84.1717276 C105.137458,84.4454663 105.005153,84.8469436 105.005153,85.3761717 L105.005153,87.7850599 L108.618486,87.7850599 L108.618486,89.0716252 C108.618486,89.3271146 108.572863,89.5004798 108.481617,89.591726 C108.390371,89.6829723 108.235254,89.7285947 108.016264,89.7285947 L105.005153,89.7285947 L105.005153,99.1177838 C105.005153,99.3732732 104.954969,99.537514 104.854598,99.610511 C104.754227,99.6835079 104.603673,99.7200059 104.402931,99.7200059 L102.870002,99.7200059 L102.870002,89.7285947 L101.665558,89.7285947 L101.665558,88.4694031 C101.665558,88.232163 101.724867,88.0587977 101.843488,87.9493023 C101.962108,87.8398068 102.140035,87.7850599 102.377275,87.7850599 L102.870002,87.7850599 L102.870002,84.8013234 C102.870002,84.1808491 102.993183,83.6607535 103.239548,83.2410208 C103.485913,82.8212882 103.814394,82.4836823 104.225002,82.2281929 C104.63561,81.9727034 105.091834,81.794776 105.593688,81.6944051 C106.095543,81.5940343 106.611076,81.5438496 107.140304,81.5438496 Z" id="path-5"></path>
        <filter x="-31.1%" y="-142.4%" width="162.3%" height="459.9%" filterUnits="objectBoundingBox" id="filter-6">
            <feOffset dx="0" dy="7" in="SourceAlpha" result="shadowOffsetOuter1"></feOffset>
            <feGaussianBlur stdDeviation="10" in="shadowOffsetOuter1" result="shadowBlurOuter1"></feGaussianBlur>
            <feColorMatrix values="0 0 0 0 0   0 0 0 0 0   0 0 0 0 0  0 0 0 0.298092165 0" type="matrix" in="shadowBlurOuter1"></feColorMatrix>
        </filter>
        <linearGradient x1="50%" y1="-7.21670053%" x2="50%" y2="100%" id="linearGradient-7">
            <stop stop-color="#3AC56F" offset="0%"></stop>
            <stop stop-color="#20BCA1" offset="26.9169978%"></stop>
            <stop stop-color="#18A1CB" offset="36.8587428%"></stop>
            <stop stop-color="#1885CB" offset="48.0175217%"></stop>
            <stop stop-color="#2766B6" offset="61.4816655%"></stop>
            <stop stop-color="#4037A9" offset="72.3649747%"></stop>
            <stop stop-color="#6C63CF" offset="84.6820809%"></stop>
            <stop stop-color="#8563CF" offset="100%"></stop>
        </linearGradient>
    </defs>
    <g id="interaction" stroke="none" stroke-width="1" fill="none" fill-rule="evenodd">
        <g id="First-modal" transform="translate(-777.000000, -183.000000)">
            <g id="Group-2" transform="translate(795.000000, 183.000000)">
                <g id="">
                    <use fill="black" fill-opacity="1" filter="url(#filter-2)" xlink:href="#path-1"></use>
                    <use fill="#FFFFFF" fill-rule="evenodd" xlink:href="#path-1"></use>
                </g>
                <g id="---">
                    <use fill="black" fill-opacity="1" filter="url(#filter-4)" xlink:href="#path-3"></use>
                    <use fill="#D6D4E2" fill-rule="evenodd" xlink:href="#path-3"></use>
                </g>
                <g id="Estishraf">
                    <use fill="black" fill-opacity="1" filter="url(#filter-6)" xlink:href="#path-5"></use>
                    <use fill="#FFFFFF" fill-rule="evenodd" xlink:href="#path-5"></use>
                </g>
                <g transform="translate(96.240008, 0.000000)">
                    <g id="Group"></g>
                    <path d="M40.3420984,79.5600066 C39.6188988,79.5600066 39.0326298,78.9846029 39.0326298,78.2748065 C39.0326298,77.5650101 39.6188988,76.9896064 40.3420984,76.9896064 L44.0118775,76.9896064 C44.735077,76.9896064 45.3213461,77.5650101 45.3213461,78.2748065 C45.3213461,78.9846029 44.735077,79.5600066 44.0118775,79.5600066 L40.3420984,79.5600066 Z M39.5818734,75.0312062 C38.8586738,75.0312062 38.2724048,74.4558025 38.2724048,73.7460061 C38.2724048,73.0362097 38.8586738,72.460806 39.5818734,72.460806 L59.6370789,72.460806 C60.3602785,72.460806 60.9465475,73.0362097 60.9465475,73.7460061 C60.9465475,74.4558025 60.3602785,75.0312062 59.6370789,75.0312062 L39.5818734,75.0312062 Z M35.460806,70.5024059 C34.7376065,70.5024059 34.1513374,69.9270022 34.1513374,69.2172057 C34.1513374,68.5074093 34.7376065,67.9320056 35.460806,67.9320056 L62.1828447,67.9320056 C62.9060443,67.9320056 63.4923133,68.5074093 63.4923133,69.2172057 C63.4923133,69.9270022 62.9060443,70.5024059 62.1828447,70.5024059 L35.460806,70.5024059 Z M33.1078954,65.9736055 C32.3846958,65.9736055 31.7984268,65.3982018 31.7984268,64.6884054 C31.7984268,63.978609 32.3846958,63.4032053 33.1078954,63.4032053 L80.5175474,63.4032053 C81.2407469,63.4032053 81.827016,63.978609 81.827016,64.6884054 C81.827016,65.3982018 81.2407469,65.9736055 80.5175474,65.9736055 L33.1078954,65.9736055 Z M30.8571585,61.4448051 C30.1339589,61.4448051 29.5476899,60.8694014 29.5476899,60.159605 C29.5476899,59.4498086 30.1339589,58.8744049 30.8571585,58.8744049 L86.861541,58.8744049 C87.5847405,58.8744049 88.1710096,59.4498086 88.1710096,60.159605 C88.1710096,60.8694014 87.5847405,61.4448051 86.861541,61.4448051 L30.8571585,61.4448051 Z M23.6327907,56.9160047 C22.9095911,56.9160047 22.3233221,56.340601 22.3233221,55.6308046 C22.3233221,54.9210082 22.9095911,54.3456045 23.6327907,54.3456045 L91.4758506,54.3456045 C92.1990501,54.3456045 92.7853192,54.9210082 92.7853192,55.6308046 C92.7853192,56.340601 92.1990501,56.9160047 91.4758506,56.9160047 L23.6327907,56.9160047 Z M23.6327907,52.3872044 C22.9095911,52.3872044 22.3233221,51.8118007 22.3233221,51.1020042 C22.3233221,50.3922078 22.9095911,49.8168041 23.6327907,49.8168041 L93.5959391,49.8168041 C94.3191387,49.8168041 94.9054077,50.3922078 94.9054077,51.1020042 C94.9054077,51.8118007 94.3191387,52.3872044 93.5959391,52.3872044 L23.6327907,52.3872044 Z M23.6327907,47.858404 C22.9095911,47.858404 22.3233221,47.2830003 22.3233221,46.5732039 C22.3233221,45.8634074 22.9095911,45.2880038 23.6327907,45.2880038 L91.6142899,45.2880038 C92.3374895,45.2880038 92.9237585,45.8634074 92.9237585,46.5732039 C92.9237585,47.2830003 92.3374895,47.858404 91.6142899,47.858404 L23.6327907,47.858404 Z M21.7318041,43.3296036 C21.0086046,43.3296036 20.4223355,42.7541999 20.4223355,42.0444035 C20.4223355,41.3346071 21.0086046,40.7592034 21.7318041,40.7592034 L77.3883897,40.7592034 C78.1115892,40.7592034 78.6978583,41.3346071 78.6978583,42.0444035 C78.6978583,42.7541999 78.1115892,43.3296036 77.3883897,43.3296036 L21.7318041,43.3296036 Z M15.0202972,38.8008032 C14.2970977,38.8008032 13.7108286,38.2253995 13.7108286,37.5156031 C13.7108286,36.8058067 14.2970977,36.230403 15.0202972,36.230403 L73.213909,36.230403 C73.9371085,36.230403 74.5233776,36.8058067 74.5233776,37.5156031 C74.5233776,38.2253995 73.9371085,38.8008032 73.213909,38.8008032 L15.0202972,38.8008032 Z M13.2691559,34.2720028 C12.5459564,34.2720028 11.9596873,33.6965992 11.9596873,32.9868027 C11.9596873,32.2770063 12.5459564,31.7016026 13.2691559,31.7016026 L68.5289981,31.7016026 C69.2521977,31.7016026 69.8384667,32.2770063 69.8384667,32.9868027 C69.8384667,33.6965992 69.2521977,34.2720028 68.5289981,34.2720028 L13.2691559,34.2720028 Z M10.659862,29.7432025 C9.93666246,29.7432025 9.35039339,29.1677988 9.35039339,28.4580024 C9.35039339,27.7482059 9.93666246,27.1728023 10.659862,27.1728023 L67.7811342,27.1728023 C68.5043337,27.1728023 69.0906028,27.7482059 69.0906028,28.4580024 C69.0906028,29.1677988 68.5043337,29.7432025 67.7811342,29.7432025 L10.659862,29.7432025 Z M7.7929004,25.2144021 C7.06970085,25.2144021 6.48343179,24.6389984 6.48343179,23.929202 C6.48343179,23.2194056 7.06970085,22.6440019 7.7929004,22.6440019 L63.6673437,22.6440019 C64.3905433,22.6440019 64.9768123,23.2194056 64.9768123,23.929202 C64.9768123,24.6389984 64.3905433,25.2144021 63.6673437,25.2144021 L7.7929004,25.2144021 Z M1.43357415,20.6856017 C0.710374603,20.6856017 0.124105536,20.110198 0.124105536,19.4004016 C0.124105536,18.6906052 0.710374603,18.1152015 1.43357415,18.1152015 L59.5496441,18.1152015 C60.2728436,18.1152015 60.8591127,18.6906052 60.8591127,19.4004016 C60.8591127,20.110198 60.2728436,20.6856017 59.5496441,20.6856017 L1.43357415,20.6856017 Z M3.66314939,16.1568013 C2.93994985,16.1568013 2.35368078,15.5813977 2.35368078,14.8716012 C2.35368078,14.1618048 2.93994985,13.5864011 3.66314939,13.5864011 L55.1871636,13.5864011 C55.9103631,13.5864011 56.4966322,14.1618048 56.4966322,14.8716012 C56.4966322,15.5813977 55.9103631,16.1568013 55.1871636,16.1568013 L3.66314939,16.1568013 Z M9.89260441,11.628001 C9.16940487,11.628001 8.5831358,11.0525973 8.5831358,10.3428009 C8.5831358,9.63300444 9.16940487,9.05760075 9.89260441,9.05760075 L37.004348,9.05760075 C37.7275476,9.05760075 38.3138166,9.63300444 38.3138166,10.3428009 C38.3138166,11.0525973 37.7275476,11.628001 37.004348,11.628001 L9.89260441,11.628001 Z M14.5042771,7.09920059 C13.7810776,7.09920059 13.1948085,6.5237969 13.1948085,5.81400048 C13.1948085,5.10420406 13.7810776,4.52880038 14.5042771,4.52880038 L32.3068485,4.52880038 C33.030048,4.52880038 33.6163171,5.10420406 33.6163171,5.81400048 C33.6163171,6.5237969 33.030048,7.09920059 32.3068485,7.09920059 L14.5042771,7.09920059 Z M12.517839,2.57040021 C11.7946394,2.57040021 11.2083704,1.99499653 11.2083704,1.28520011 C11.2083704,0.575403687 11.7946394,0 12.517839,0 L30.1432742,0 C30.8664737,0 31.4527428,0.575403687 31.4527428,1.28520011 C31.4527428,1.99499653 30.8664737,2.57040021 30.1432742,2.57040021 L12.517839,2.57040021 Z" id="Combined-Shape" fill="url(#linearGradient-7)" fill-rule="nonzero"></path>
                </g>
            </g>
        </g>
    </g>
</svg>