<?xml version="1.0" encoding="UTF-8"?>
<svg width="18px" height="18px" viewBox="0 0 18 18" version="1.1" xmlns="http://www.w3.org/2000/svg" xmlns:xlink="http://www.w3.org/1999/xlink">
    <!-- Generator: Sketch 52.5 (67469) - http://www.bohemiancoding.com/sketch -->
    <title>Shape</title>
    <desc>Created with Sketch.</desc>
    <g id="Page-1" stroke="none" stroke-width="1" fill="none" fill-rule="evenodd">
        <g id="First-modal" transform="translate(-80.000000, -181.000000)" fill="#F5A623" fill-rule="nonzero">
            <g id="Group-9" transform="translate(45.000000, 82.000000)">
                <g id="Group-14" transform="translate(15.000000, 97.000000)">
                    <g id="Group-8">
                        <g id="Group-13" transform="translate(0.000000, 2.000000)">
                            <path d="M27.09,12.59 L28.5,14 L33.5,9 L28.5,4 L27.09,5.41 L29.67,8 L20,8 L20,10 L29.67,10 L27.09,12.59 Z M36,0 L22,0 C20.89,0 20,0.9 20,2 L20,6 L22,6 L22,2 L36,2 L36,16 L22,16 L22,12 L20,12 L20,16 C20,17.1 20.89,18 22,18 L36,18 C37.1,18 38,17.1 38,16 L38,2 C38,0.9 37.1,0 36,0 Z" id="Shape"></path>
                        </g>
                    </g>
                </g>
            </g>
        </g>
    </g>
</svg>