<?xml version="1.0" encoding="UTF-8"?>
<svg width="20px" height="20px" viewBox="0 0 20 20" version="1.1" xmlns="http://www.w3.org/2000/svg" xmlns:xlink="http://www.w3.org/1999/xlink">
    <!-- Generator: Sketch 52.5 (67469) - http://www.bohemiancoding.com/sketch -->
    <title>Shape</title>
    <desc>Created with Sketch.</desc>
    <g id="Page-1" stroke="none" stroke-width="1" fill="none" fill-rule="evenodd">
        <g id="First-modal" transform="translate(-157.000000, -179.000000)" fill="#0B86BF" fill-rule="nonzero">
            <g id="Group-9" transform="translate(45.000000, 82.000000)">
                <g id="Group-14" transform="translate(15.000000, 97.000000)">
                    <g id="Group-8">
                        <g id="®" transform="translate(81.000000, 0.000000)">
                            <path d="M33.43,10.98 C33.47,10.66 33.5,10.34 33.5,10 C33.5,9.66 33.47,9.34 33.43,9.02 L35.54,7.37 C35.73,7.22 35.78,6.95 35.66,6.73 L33.66,3.27 C33.54,3.05 33.27,2.97 33.05,3.05 L30.56,4.05 C30.04,3.65 29.48,3.32 28.87,3.07 L28.49,0.42 C28.46,0.18 28.25,0 28,0 L24,0 C23.75,0 23.54,0.18 23.51,0.42 L23.13,3.07 C22.52,3.32 21.96,3.66 21.44,4.05 L18.95,3.05 C18.72,2.96 18.46,3.05 18.34,3.27 L16.34,6.73 C16.21,6.95 16.27,7.22 16.46,7.37 L18.57,9.02 C18.53,9.34 18.5,9.67 18.5,10 C18.5,10.33 18.53,10.66 18.57,10.98 L16.46,12.63 C16.27,12.78 16.22,13.05 16.34,13.27 L18.34,16.73 C18.46,16.95 18.73,17.03 18.95,16.95 L21.44,15.95 C21.96,16.35 22.52,16.68 23.13,16.93 L23.51,19.58 C23.54,19.82 23.75,20 24,20 L28,20 C28.25,20 28.46,19.82 28.49,19.58 L28.87,16.93 C29.48,16.68 30.04,16.34 30.56,15.95 L33.05,16.95 C33.28,17.04 33.54,16.95 33.66,16.73 L35.66,13.27 C35.78,13.05 35.73,12.78 35.54,12.63 L33.43,10.98 Z M26,13.5 C24.07,13.5 22.5,11.93 22.5,10 C22.5,8.07 24.07,6.5 26,6.5 C27.93,6.5 29.5,8.07 29.5,10 C29.5,11.93 27.93,13.5 26,13.5 Z" id="Shape"></path>
                        </g>
                    </g>
                </g>
            </g>
        </g>
    </g>
</svg>